<?xml version="1.0" encoding="UTF-8"?>
<svg version="1.1" xmlns="http://www.w3.org/2000/svg" width="256" height="199">
<path d="M0 0 C1.2065625 0.0309375 1.2065625 0.0309375 2.4375 0.0625 C2.1075 1.7125 1.7775 3.3625 1.4375 5.0625 C3.4175 6.3825 5.3975 7.7025 7.4375 9.0625 C8.05625 8.2890625 8.05625 8.2890625 8.6875 7.5 C10.4375 6.0625 10.4375 6.0625 12.5 6 C14.4375 7.0625 14.4375 7.0625 15.6875 10.125 C15.935 11.094375 16.1825 12.06375 16.4375 13.0625 C17.0975 13.0625 17.7575 13.0625 18.4375 13.0625 C17.9425 10.5875 17.9425 10.5875 17.4375 8.0625 C19.86288777 6.7527906 21.79599897 5.71623164 24.4375 5.0625 C28.28303192 6.41974656 31.2780152 8.51060843 34.4375 11.0625 C35.7678125 9.7940625 35.7678125 9.7940625 37.125 8.5 C40.05243829 6.03624579 40.05243829 6.03624579 43.1875 6.25 C43.93 6.518125 44.6725 6.78625 45.4375 7.0625 C47.7011038 7.17689765 47.7011038 7.17689765 50.6875 5.875 C55.20939707 4.89525563 56.55680241 5.76936052 60.4375 8.0625 C63.49946328 8.34997276 63.49946328 8.34997276 65.75 6.4375 C68.4375 5.0625 68.4375 5.0625 71.5625 5.625 C74.53261834 7.11005917 75.7506319 8.25105317 77.4375 11.0625 C76.4475 12.3825 75.4575 13.7025 74.4375 15.0625 C75.4275 15.5575 75.4275 15.5575 76.4375 16.0625 C76.92218708 22.48460386 76.92218708 22.48460386 74.8125 25 C71.71473293 26.38584316 69.8035538 26.54336483 66.4375 26.0625 C63.5625 24.0625 63.5625 24.0625 61.4375 22.0625 C60.385625 23.0525 60.385625 23.0525 59.3125 24.0625 C56.4375 26.0625 56.4375 26.0625 53.5 26.625 C49.21740245 25.83840045 47.54080106 24.09363127 44.4375 21.0625 C43.08310332 18.35370665 43.37248549 16.05316732 43.4375 13.0625 C42.4475 12.7325 41.4575 12.4025 40.4375 12.0625 C40.36402344 13.45275391 40.36402344 13.45275391 40.2890625 14.87109375 C40.21429688 16.06863281 40.13953125 17.26617187 40.0625 18.5 C39.99289063 19.69496094 39.92328125 20.88992187 39.8515625 22.12109375 C39.71492188 23.09175781 39.57828125 24.06242187 39.4375 25.0625 C38.7775 25.3925 38.1175 25.7225 37.4375 26.0625 C36.4475 25.4025 35.4575 24.7425 34.4375 24.0625 C34.4375 23.4025 34.4375 22.7425 34.4375 22.0625 C33.426875 22.7225 32.41625 23.3825 31.375 24.0625 C27.60093343 26.21257429 24.81058068 26.54839785 20.4375 26.0625 C17.5 25.0625 17.5 25.0625 15.4375 24.0625 C15.025 25.196875 14.6125 26.33125 14.1875 27.5 C12.4375 31.0625 12.4375 31.0625 10.25 32 C9.3528125 32.0309375 9.3528125 32.0309375 8.4375 32.0625 C7.73675156 28.909132 7.4375 26.33525026 7.4375 23.0625 C6.9425 23.5575 6.4475 24.0525 5.9375 24.5625 C2.50468334 26.62219 -0.6956671 26.68119326 -4.5625 26.0625 C-5.449375 25.52625 -6.33625 24.99 -7.25 24.4375 C-8.3946875 23.756875 -8.3946875 23.756875 -9.5625 23.0625 C-12.02479997 23.77995356 -12.02479997 23.77995356 -14.5625 25.0625 C-16.88847511 25.4438074 -19.22162158 25.78710254 -21.5625 26.0625 C-22.5525 28.5375 -22.5525 28.5375 -23.5625 31.0625 C-24.8825 31.0625 -26.2025 31.0625 -27.5625 31.0625 C-29.07867889 28.03014223 -28.77284412 25.18324987 -28.8125 21.8125 C-28.83828125 20.50796875 -28.8640625 19.2034375 -28.890625 17.859375 C-28.54175691 13.82247287 -27.71831724 11.46748236 -25.5625 8.0625 C-21.89437819 5.61708546 -18.82569633 5.22151791 -14.5625 6.0625 C-11.6875 8.4375 -11.6875 8.4375 -9.5625 11.0625 C-8.9025 11.7225 -8.2425 12.3825 -7.5625 13.0625 C-7.624375 12.27875 -7.68625 11.495 -7.75 10.6875 C-7.6571875 9.388125 -7.6571875 9.388125 -7.5625 8.0625 C-6.5725 7.4025 -5.5825 6.7425 -4.5625 6.0625 C-3.90694881 3.53516765 -3.90694881 3.53516765 -3.5625 1.0625 C-2.5625 0.0625 -2.5625 0.0625 0 0 Z M-22.5625 12.0625 C-22.5625 14.3725 -22.5625 16.6825 -22.5625 19.0625 C-19.66176819 19.74051034 -19.66176819 19.74051034 -16.5625 20.0625 C-14.29410017 18.22984675 -14.29410017 18.22984675 -14.375 15.5 C-14.29246677 13.11560277 -14.29246677 13.11560277 -15.5625 12.0625 C-17.89547433 12.02157063 -20.22955225 12.02008277 -22.5625 12.0625 Z M48.4375 14.0625 C48.75791397 16.66530568 48.75791397 16.66530568 49.4375 19.0625 C52.33823181 19.74051034 52.33823181 19.74051034 55.4375 20.0625 C57.70589983 18.22984675 57.70589983 18.22984675 57.625 15.5 C57.70753323 13.11560277 57.70753323 13.11560277 56.4375 12.0625 C51.93864231 11.59527305 51.93864231 11.59527305 48.4375 14.0625 Z M-4.5625 18.0625 C-3.76354587 20.23190921 -3.76354587 20.23190921 -1.6875 20.75 C0.61933235 21.25238397 0.61933235 21.25238397 3.4375 20.0625 C3.4375 19.4025 3.4375 18.7425 3.4375 18.0625 C0.7975 18.0625 -1.8425 18.0625 -4.5625 18.0625 Z M19.4375 18.0625 C22.28576598 20.42942966 22.28576598 20.42942966 25.625 19.6875 C26.553125 19.48125 27.48125 19.275 28.4375 19.0625 C28.4375 18.7325 28.4375 18.4025 28.4375 18.0625 C25.4675 18.0625 22.4975 18.0625 19.4375 18.0625 Z " fill="#D47B72" transform="translate(53.5625,144.9375)"/>
<path d="M0 0 C0.99 0.33 1.98 0.66 3 1 C3.74504043 8.8448375 -2.07026014 16.87760101 -6.8125 22.8125 C-7.534375 23.534375 -8.25625 24.25625 -9 25 C-9.66 25 -10.32 25 -11 25 C-11 25.66 -11 26.32 -11 27 C-16.14865844 31.89122552 -21.72627333 36 -29 36 C-29 36.66 -29 37.32 -29 38 C-29.89138672 38.185625 -29.89138672 38.185625 -30.80078125 38.375 C-40.09934001 40.68879378 -47.50274013 46.02200117 -54 53 C-54.495 53.99 -54.495 53.99 -55 55 C-55.66 55 -56.32 55 -57 55 C-57.39832031 56.27230469 -57.39832031 56.27230469 -57.8046875 57.5703125 C-59.04440466 61.12740946 -60.52482616 64.46593399 -62.125 67.875 C-62.66382813 69.02742188 -63.20265625 70.17984375 -63.7578125 71.3671875 C-64.16773438 72.23601562 -64.57765625 73.10484375 -65 74 C-69.40437809 73.3673269 -72.28227849 72.47848101 -76 70 C-79.10953379 68.4452331 -81.56266761 68.71355563 -85 69 C-88.22132295 70.73083907 -88.22132295 70.73083907 -91 73 C-91.78375 73.5775 -92.5675 74.155 -93.375 74.75 C-93.91125 75.1625 -94.4475 75.575 -95 76 C-93.39125 76.37125 -93.39125 76.37125 -91.75 76.75 C-86.66929211 78.4435693 -84.9472236 80.41001754 -82.25 84.9375 C-81.02591841 87.9364999 -80.71851141 89.80979602 -81 93 C-82.32 93 -83.64 93 -85 93 C-85.515625 91.9275 -86.03125 90.855 -86.5625 89.75 C-88.9296151 85.74536006 -91.48738641 83.31129518 -96 82 C-99.94780368 81.62263641 -103.8037941 81.4376461 -107.76953125 81.37109375 C-108.83558594 81.24863281 -109.90164062 81.12617187 -111 81 C-111.66 80.01 -112.32 79.02 -113 78 C-110.77274507 75.50406034 -108.77793477 74.30614646 -105.6875 73.0625 C-100.51064603 70.8510284 -96.18999345 68.05545753 -91.9375 64.375 C-87.39294549 60.70067934 -83.85929553 59.4021127 -78 60 C-73.32459411 61.81291249 -70.37530472 64.32687428 -67 68 C-66.91363281 67.17757812 -66.82726562 66.35515625 -66.73828125 65.5078125 C-65.42310218 55.05877513 -62.43049843 46.6117301 -55 39 C-48.46520566 34.13366379 -41.98926059 31.60844658 -34.1875 29.6875 C-27.18220959 27.84749168 -21.60791517 25.72942202 -16 21 C-15.35804688 20.50371094 -14.71609375 20.00742187 -14.0546875 19.49609375 C-7.48283612 14.23036346 -3.95504923 7.29414818 0 0 Z " fill="#CD5851" transform="translate(180,18)"/>
<path d="M0 0 C1.03125 0.2475 2.0625 0.495 3.125 0.75 C6.66491203 2.28909219 8.43726028 4.11691782 11 7 C11.54269531 7.598125 12.08539063 8.19625 12.64453125 8.8125 C17 13.70857728 17 13.70857728 17 16 C13.91757006 15.65750778 12.96151658 14.9604476 10.75 12.6875 C5.74916542 7.80032075 1.22077733 5.76420342 -5.8125 5.5 C-12.05481401 5.69084782 -17.32577109 7.4979778 -23 10 C-20.69 10.33 -18.38 10.66 -16 11 C-16.33 11.99 -16.66 12.98 -17 14 C-18.92578125 14.80859375 -18.92578125 14.80859375 -21.3125 15.4375 C-25.29595624 16.63567345 -27.13996854 17.94929977 -30 21 C-36.08503363 24.42283142 -42.10762951 24.67179188 -49 25 C-39.87011907 27.46646021 -27.48622789 26.01054845 -19.1953125 21.4609375 C-18.47085938 20.97882813 -17.74640625 20.49671875 -17 20 C-15.35448038 19.28272222 -13.68577711 18.61674772 -12 18 C-10.515 17.443125 -10.515 17.443125 -9 16.875 C-3.47755616 15.26428721 -0.08214178 15.92849037 4.92578125 18.58984375 C8.56402936 21.06330433 11.71568444 24.22894347 14 28 C13.505 29.485 13.505 29.485 13 31 C12.48050781 30.60167969 11.96101563 30.20335937 11.42578125 29.79296875 C4.75693516 24.38195049 4.75693516 24.38195049 -3.125 21.4375 C-6.97975919 21.99706182 -8.75950075 22.83416343 -12.0625 24.75 C-24.23725133 31.74012934 -38.747741 34.68892954 -52.5 31.08203125 C-58.65430556 28.70493073 -63.29679445 25.59631451 -68 21 C-67.67 19.35 -67.34 17.7 -67 16 C-62.15721272 15.84378106 -57.85495665 15.92363166 -53.125 17 C-45.66836043 18.62605847 -38.1314114 19.08385358 -31 16 C-34.3 14.68 -37.6 13.36 -41 12 C-41 11.34 -41 10.68 -41 10 C-41.66 10 -42.32 10 -43 10 C-45.1875 7.1875 -45.1875 7.1875 -47 4 C-46.67 3.01 -46.34 2.02 -46 1 C-41.15684038 0.82135887 -36.61367102 0.65492529 -31.9375 2.0625 C-25.35403694 3.90219028 -19.32082927 2.11907101 -12.875 0.375 C-8.18773662 -0.84440228 -4.77314191 -1.2410169 0 0 Z M-38 6 C-37.01 7.485 -37.01 7.485 -36 9 C-32.91634129 9.2502157 -32.91634129 9.2502157 -30 9 C-32.63904371 7.58622659 -35.07120629 6.62759865 -38 6 Z " fill="#95D485" transform="translate(166,102)"/>
<path d="M0 0 C1.32 0 2.64 0 4 0 C4.66 3.3 5.32 6.6 6 10 C7.32 9.01 8.64 8.02 10 7 C12.3125 6.0625 12.3125 6.0625 15 6 C16.14983044 6.68934679 17.2733597 7.4234989 18.375 8.1875 C20.11104313 9.40231325 20.11104313 9.40231325 22 10 C24.01224917 9.22403463 25.53693067 8.1428698 27.30078125 6.91015625 C29 6 29 6 32.25 6.5625 C34.70049229 7.84343915 36.26450059 8.87883406 38 11 C36.125 14.875 36.125 14.875 35 16 C35.99 16.66 36.98 17.32 38 18 C37.8125 20.8125 37.8125 20.8125 37 24 C34.46318253 26.11401456 32.69596675 26.89815121 29.4375 27.375 C27 27 27 27 25 25.375 C24.34 24.92125 23.68 24.4675 23 24 C20.60736593 24.66771183 18.77902615 25.22097385 17 27 C12.76254244 27.60535108 10.51128501 26.93647336 7.125 24.5 C6.07275286 23.68006717 5.02728193 22.85100278 4 22 C3.54367188 22.47050781 3.08734375 22.94101563 2.6171875 23.42578125 C0.14844429 25.82892983 -1.97369988 26.83795261 -5.375 27.375 C-8.959078 26.86298886 -11.1324208 25.13401243 -14 23 C-14.66 24.32 -15.32 25.64 -16 27 C-17.32 26.67 -18.64 26.34 -20 26 C-20.05816623 22.58340509 -20.09365195 19.16693795 -20.125 15.75 C-20.14175781 14.78191406 -20.15851563 13.81382812 -20.17578125 12.81640625 C-20.18222656 11.88183594 -20.18867188 10.94726562 -20.1953125 9.984375 C-20.20578613 9.12553711 -20.21625977 8.26669922 -20.22705078 7.38183594 C-19.98293323 4.82096404 -19.28990512 3.20488971 -18 1 C-16.35 1 -14.7 1 -13 1 C-13 4 -13 4 -14.0625 6.0625 C-14.371875 6.701875 -14.68125 7.34125 -15 8 C-14.67 8.66 -14.34 9.32 -14 10 C-13.319375 9.505 -12.63875 9.01 -11.9375 8.5 C-8.37290537 6.67978147 -5.95437795 6.70155638 -2 7 C-1.34 7.33 -0.68 7.66 0 8 C0 5.36 0 2.72 0 0 Z M-9 14 C-9.04080783 15.99958364 -9.04254356 18.00045254 -9 20 C-6.14921909 20.76716851 -6.14921909 20.76716851 -3 21 C-0.95548981 19.95625978 -0.95548981 19.95625978 0 18 C-0.25146579 15.86254078 -0.45925779 14.54074221 -2 13 C-5.80240375 12.52263947 -5.80240375 12.52263947 -9 14 Z M10 14 C9.7499227 16.45809998 9.7499227 16.45809998 10 19 C10.66 19.66 11.32 20.32 12 21 C15.82564665 20.81242938 15.82564665 20.81242938 19 19 C19.16666667 16.5 19.16666667 16.5 19 14 C17.82281015 12.59567064 17.82281015 12.59567064 14.5 12.875 C11.17718985 12.59567064 11.17718985 12.59567064 10 14 Z M23 17 C23.33 17.66 23.66 18.32 24 19 C24.33 18.34 24.66 17.68 25 17 C24.34 17 23.68 17 23 17 Z M27 19 C27.33 19.66 27.66 20.32 28 21 C28.33 20.34 28.66 19.68 29 19 C28.34 19 27.68 19 27 19 Z " fill="#8FCA7A" transform="translate(195,144)"/>
<path d="M0 0 C1.2065625 0.0309375 1.2065625 0.0309375 2.4375 0.0625 C2.1075 1.7125 1.7775 3.3625 1.4375 5.0625 C2.4275 5.475 3.4175 5.8875 4.4375 6.3125 C6.1015625 7.375 6.1015625 7.375 7.4375 9.0625 C7.98575364 13.10452683 7.78184166 17.00692049 7.4375 21.0625 C6.4475 21.5575 6.4475 21.5575 5.4375 22.0625 C5.4375 20.0825 5.4375 18.1025 5.4375 16.0625 C2.1375 16.0625 -1.1625 16.0625 -4.5625 16.0625 C-2.79645095 19.17876617 -2.79645095 19.17876617 0.0625 20.625 C0.84625 21.099375 1.63 21.57375 2.4375 22.0625 C2.4375 22.7225 2.4375 23.3825 2.4375 24.0625 C1.48488281 23.95550781 0.53226563 23.84851563 -0.44921875 23.73828125 C-1.70347656 23.61839844 -2.95773438 23.49851563 -4.25 23.375 C-5.49136719 23.24738281 -6.73273437 23.11976563 -8.01171875 22.98828125 C-11.91573195 23.06988329 -13.41339607 23.88917475 -16.5625 26.0625 C-19.375 26.25 -19.375 26.25 -21.5625 26.0625 C-22.5525 28.5375 -22.5525 28.5375 -23.5625 31.0625 C-24.8825 31.0625 -26.2025 31.0625 -27.5625 31.0625 C-29.07867889 28.03014223 -28.77284412 25.18324987 -28.8125 21.8125 C-28.83828125 20.50796875 -28.8640625 19.2034375 -28.890625 17.859375 C-28.54175691 13.82247287 -27.71831724 11.46748236 -25.5625 8.0625 C-21.89437819 5.61708546 -18.82569633 5.22151791 -14.5625 6.0625 C-11.6875 8.4375 -11.6875 8.4375 -9.5625 11.0625 C-8.9025 11.7225 -8.2425 12.3825 -7.5625 13.0625 C-7.624375 12.27875 -7.68625 11.495 -7.75 10.6875 C-7.6571875 9.388125 -7.6571875 9.388125 -7.5625 8.0625 C-6.5725 7.4025 -5.5825 6.7425 -4.5625 6.0625 C-3.90694881 3.53516765 -3.90694881 3.53516765 -3.5625 1.0625 C-2.5625 0.0625 -2.5625 0.0625 0 0 Z M-22.5625 12.0625 C-22.5625 14.3725 -22.5625 16.6825 -22.5625 19.0625 C-19.66176819 19.74051034 -19.66176819 19.74051034 -16.5625 20.0625 C-14.29410017 18.22984675 -14.29410017 18.22984675 -14.375 15.5 C-14.29246677 13.11560277 -14.29246677 13.11560277 -15.5625 12.0625 C-17.89547433 12.02157063 -20.22955225 12.02008277 -22.5625 12.0625 Z " fill="#E7867E" transform="translate(53.5625,144.9375)"/>
<path d="M0 0 C0.99 1.485 0.99 1.485 2 3 C-1.00617269 6.00617269 -3.82381598 5.59585316 -8 6 C-8.33 7.98 -8.66 9.96 -9 12 C-5.7 12 -2.4 12 1 12 C1.33 10.68 1.66 9.36 2 8 C2.53625 7.505 3.0725 7.01 3.625 6.5 C4.305625 5.7575 4.305625 5.7575 5 5 C4.77242269 2.83700789 4.77242269 2.83700789 4 1 C9.92993631 -2.26751592 9.92993631 -2.26751592 14.75 -1.0625 C18.51912029 1.32944172 19.59899869 2.79699606 21 7 C21.5 10.0625 21.5 10.0625 21 13 C18.40774973 16.53488673 16.74879561 17.79942975 12.5 18.9375 C8.94374595 19.00100454 7.20638025 18.35005484 4 17 C1.10755584 17.38058476 -1.56152896 18.15598027 -4.375 18.9375 C-8.30877241 19.00532366 -8.94811568 18.72010608 -11.875 16.375 C-13.9307767 14.37465997 -14.95313016 13.11303903 -16.0625 10.4375 C-15.98480278 7.40730849 -15.49505301 5.65032125 -14 3 C-9.06155033 -1.55856892 -6.29071423 -2.67689967 0 0 Z M7 11 C7.33 11.66 7.66 12.32 8 13 C11.465 12.505 11.465 12.505 15 12 C15 11.67 15 11.34 15 11 C12.36 11 9.72 11 7 11 Z " fill="#83BF69" transform="translate(153,152)"/>
<path d="M0 0 C2.95400517 2.30781654 3.00746318 4.04070827 3.6875 7.75 C3.790625 8.8225 3.89375 9.895 4 11 C6.97 11.495 6.97 11.495 10 12 C9.67 10.68 9.34 9.36 9 8 C7.35 8.33 5.7 8.66 4 9 C4.75 2.25 4.75 2.25 7 0 C15.20588235 -0.52941176 15.20588235 -0.52941176 19 2 C18.01 3.65 17.02 5.3 16 7 C16.66 7.33 17.32 7.66 18 8 C18.48468708 14.42210386 18.48468708 14.42210386 16.375 16.9375 C13.27723293 18.32334316 11.3660538 18.48086483 8 18 C5.125 16 5.125 16 3 14 C2.29875 14.66 1.5975 15.32 0.875 16 C-2 18 -2 18 -5 18.6875 C-8.29205271 17.93307125 -8.84895456 17.47864174 -10.875 14.9375 C-13.2021698 11.21704083 -13.74737468 8.40120642 -13 4 C-10.040592 -1.0181266 -5.28908498 -0.9735128 0 0 Z M-10 6 C-9.67958603 8.60280568 -9.67958603 8.60280568 -9 11 C-6.09926819 11.67801034 -6.09926819 11.67801034 -3 12 C-0.73160017 10.16734675 -0.73160017 10.16734675 -0.8125 7.4375 C-0.72996677 5.05310277 -0.72996677 5.05310277 -2 4 C-6.49885769 3.53277305 -6.49885769 3.53277305 -10 6 Z " fill="#CF6059" transform="translate(112,153)"/>
<path d="M0 0 C3.63824811 2.47346058 6.78990319 5.63909972 9.07421875 9.41015625 C8.74421875 10.40015625 8.41421875 11.39015625 8.07421875 12.41015625 C7.55472656 12.01183594 7.03523438 11.61351562 6.5 11.203125 C-0.16884609 5.79210674 -0.16884609 5.79210674 -8.05078125 2.84765625 C-11.90554044 3.40721807 -13.685282 4.24431968 -16.98828125 6.16015625 C-29.27312808 13.21349688 -43.74870252 16.0490587 -57.6015625 12.45703125 C-65.38374709 9.51191708 -65.38374709 9.51191708 -67.2421875 5.734375 C-67.46777344 4.96738281 -67.69335938 4.20039062 -67.92578125 3.41015625 C-67.26578125 3.67828125 -66.60578125 3.94640625 -65.92578125 4.22265625 C-64.93578125 4.61453125 -63.94578125 5.00640625 -62.92578125 5.41015625 C-61.25515625 6.18359375 -61.25515625 6.18359375 -59.55078125 6.97265625 C-53.36164445 9.33838808 -46.47918495 9.162697 -39.92578125 9.41015625 C-39.92578125 8.75015625 -39.92578125 8.09015625 -39.92578125 7.41015625 C-39.04535156 7.22839844 -38.16492188 7.04664062 -37.2578125 6.859375 C-36.09636719 6.60800781 -34.93492187 6.35664062 -33.73828125 6.09765625 C-32.01544922 5.73220703 -32.01544922 5.73220703 -30.2578125 5.359375 C-27.01637777 4.43596511 -24.72543743 3.24712364 -21.92578125 1.41015625 C-20.28026163 0.69287847 -18.61155836 0.02690397 -16.92578125 -0.58984375 C-15.44078125 -1.14671875 -15.44078125 -1.14671875 -13.92578125 -1.71484375 C-8.40333741 -3.32555654 -5.00792303 -2.66135338 0 0 Z " fill="#72B75D" transform="translate(170.92578125,120.58984375)"/>
<path d="M0 0 C2 0 2 0 4 1 C5.25 4.0625 5.25 4.0625 6 7 C6.66 7 7.32 7 8 7 C7.67 5.35 7.34 3.7 7 2 C8.32 1.67 9.64 1.34 11 1 C10.01 1.495 10.01 1.495 9 2 C9.33 2.66 9.66 3.32 10 4 C12.31 4 14.62 4 17 4 C17.66 5.32 18.32 6.64 19 8 C15.37 8.33 11.74 8.66 8 9 C7.34 11.31 6.68 13.62 6 16 C13.19544073 17.24488322 13.19544073 17.24488322 20.0625 15.5625 C21.0215625 14.7890625 21.0215625 14.7890625 22 14 C22.66 14 23.32 14 24 14 C24 12.02 24 10.04 24 8 C24.33 8 24.66 8 25 8 C25 11.3 25 14.6 25 18 C24.505 17.01 24.505 17.01 24 16 C22.989375 16.66 21.97875 17.32 20.9375 18 C17.16343343 20.15007429 14.37308068 20.48589785 10 20 C7.0625 19 7.0625 19 5 18 C4.5875 19.134375 4.175 20.26875 3.75 21.4375 C2 25 2 25 -0.1875 25.9375 C-1.0846875 25.9684375 -1.0846875 25.9684375 -2 26 C-2.70074844 22.846632 -3 20.27275026 -3 17 C-3.495 17.495 -3.99 17.99 -4.5 18.5 C-8.19724878 20.71834927 -10.71162487 20.34034723 -15 20 C-15.99 19.34 -16.98 18.68 -18 18 C-17.67 17.34 -17.34 16.68 -17 16 C-12.545 16.99 -12.545 16.99 -8 18 C-8 17.34 -8 16.68 -8 16 C-8.66 16 -9.32 16 -10 16 C-9.67 15.01 -9.34 14.02 -9 13 C-8.34 12.67 -7.68 12.34 -7 12 C-9.64 12 -12.28 12 -15 12 C-15 11.34 -15 10.68 -15 10 C-11.7 10 -8.4 10 -5 10 C-4.67 11.65 -4.34 13.3 -4 15 C-3.87882812 14.08476562 -3.75765625 13.16953125 -3.6328125 12.2265625 C-3.46523438 11.03804687 -3.29765625 9.84953125 -3.125 8.625 C-2.96257813 7.44164062 -2.80015625 6.25828125 -2.6328125 5.0390625 C-2 2 -2 2 0 0 Z " fill="#E59488" transform="translate(64,151)"/>
<path d="M0 0 C1.03125 0.2475 2.0625 0.495 3.125 0.75 C6.66491203 2.28909219 8.43726028 4.11691782 11 7 C11.54269531 7.598125 12.08539063 8.19625 12.64453125 8.8125 C17 13.70857728 17 13.70857728 17 16 C13.91757006 15.65750778 12.96151658 14.9604476 10.75 12.6875 C5.66374051 7.71683732 1.15109686 5.76089109 -6 5.5625 C-10.53207143 5.70448219 -13.89085487 6.51790704 -18 8.32421875 C-23.8985343 10.31727819 -30.37124889 9.37000047 -36 7 C-36 6.34 -36 5.68 -36 5 C-39.11785113 5.64644661 -39.11785113 5.64644661 -40 8 C-39.071875 8.268125 -38.14375 8.53625 -37.1875 8.8125 C-34.23759634 9.91148371 -32.94384814 10.62418561 -31 13 C-35.37905014 12.49080812 -38.46115497 11.67804488 -42 9 C-43.875 6.5 -43.875 6.5 -45 4 C-44.67 3.01 -44.34 2.02 -44 1 C-39.74291229 0.84796115 -36.15169125 0.8365654 -32.0625 2.0625 C-25.40742281 3.8716472 -19.38776549 2.13718218 -12.875 0.375 C-8.18773662 -0.84440228 -4.77314191 -1.2410169 0 0 Z " fill="#84C474" transform="translate(166,102)"/>
<path d="M0 0 C-0.27197266 1.89746094 -0.27197266 1.89746094 -1 4 C-2.59130859 4.96972656 -2.59130859 4.96972656 -4.6484375 5.640625 C-5.40181396 5.90246582 -6.15519043 6.16430664 -6.93139648 6.43408203 C-8.14098022 6.83796143 -8.14098022 6.83796143 -9.375 7.25 C-17.70129944 10.25184789 -26.83611734 13.69309337 -31.5859375 21.66015625 C-33 24 -33 24 -36.1875 25.3125 C-37.5796875 25.6528125 -37.5796875 25.6528125 -39 26 C-38.54347201 20.21731207 -36.31343017 14.74240274 -33 10 C-31.1796875 9.38671875 -31.1796875 9.38671875 -29 9 C-27.13039618 8.07214313 -25.27763857 7.11000094 -23.4375 6.125 C-16.06863269 2.38208327 -8.4106267 -0.68194271 0 0 Z " fill="#C12F21" transform="translate(157,48)"/>
<path d="M0 0 C1.65 0 3.3 0 5 0 C5 3 5 3 3.9375 5.0625 C3.628125 5.701875 3.31875 6.34125 3 7 C3.33 7.66 3.66 8.32 4 9 C4.680625 8.505 5.36125 8.01 6.0625 7.5 C9.59465009 5.69634889 12.08636991 5.76978647 16 6 C16.33 6.66 16.66 7.32 17 8 C12.545 8.495 12.545 8.495 8 9 C9.8871875 9.1546875 9.8871875 9.1546875 11.8125 9.3125 C14.42430858 9.64592237 15.81670788 9.88335956 18.0625 11.3125 C19 13 19 13 18.6875 15.1875 C18.460625 15.785625 18.23375 16.38375 18 17 C17.34 15.68 16.68 14.36 16 13 C14.02 13 12.04 13 10 13 C9.67 14.98 9.34 16.96 9 19 C9.66 19 10.32 19 11 19 C11 19.66 11 20.32 11 21 C9.68 20.34 8.36 19.68 7 19 C7 16.69 7 14.38 7 12 C6.34 11.67 5.68 11.34 5 11 C5.33 14.63 5.66 18.26 6 22 C9.3 22.66 12.6 23.32 16 24 C15.67 24.66 15.34 25.32 15 26 C10.18569279 26.56638908 7.79692186 24.82561627 4 22 C3.34 23.32 2.68 24.64 2 26 C0.68 25.67 -0.64 25.34 -2 25 C-2.05816623 21.58340509 -2.09365195 18.16693795 -2.125 14.75 C-2.14175781 13.78191406 -2.15851563 12.81382812 -2.17578125 11.81640625 C-2.18222656 10.88183594 -2.18867188 9.94726562 -2.1953125 8.984375 C-2.20578613 8.12553711 -2.21625977 7.26669922 -2.22705078 6.38183594 C-1.98293323 3.82096404 -1.28990512 2.20488971 0 0 Z " fill="#85C371" transform="translate(177,145)"/>
<path d="M0 0 C1 3 1 3 0.3203125 4.91015625 C-5.15090356 14.76192112 -12.24717692 22.32814544 -22 28 C-22 27.01 -22 26.02 -22 25 C-31.55198953 26.92397893 -40.08856264 29.00415354 -48.6796875 33.73046875 C-51 35 -51 35 -54 36 C-54 35.34 -54 34.68 -54 34 C-47.42811753 29.14932485 -41.00395119 26.61103519 -33.1875 24.6875 C-24.9765197 22.53984707 -18.76285761 19.76285761 -12.6875 13.6875 C-11 12 -11 12 -9.12890625 11.7421875 C-5.86596452 10.60464818 -4.98740996 8.34432051 -3.25 5.4375 C-2.63640625 4.42558594 -2.0228125 3.41367187 -1.390625 2.37109375 C-0.93171875 1.58863281 -0.4728125 0.80617188 0 0 Z " fill="#BD392F" transform="translate(179,23)"/>
<path d="M0 0 C0.66 0.33 1.32 0.66 2 1 C2.268125 2.134375 2.53625 3.26875 2.8125 4.4375 C3.61004308 8.12950062 3.61004308 8.12950062 6.4375 9.4375 C9.05112026 10.10720365 9.05112026 10.10720365 12 10 C10.02 9.01 8.04 8.02 6 7 C6.33 6.01 6.66 5.02 7 4 C7.99 4.33 8.98 4.66 10 5 C10 5.66 10 6.32 10 7 C11.19238281 7.13277344 12.38476562 7.26554687 13.61328125 7.40234375 C15.17970678 7.58055983 16.74611198 7.75895456 18.3125 7.9375 C19.49102539 8.06801758 19.49102539 8.06801758 20.69335938 8.20117188 C21.45068359 8.28818359 22.20800781 8.37519531 22.98828125 8.46484375 C23.68477783 8.543396 24.38127441 8.62194824 25.09887695 8.70288086 C27 9 27 9 30 10 C29.67 10.99 29.34 11.98 29 13 C27.07421875 13.80859375 27.07421875 13.80859375 24.6875 14.4375 C20.77023584 15.61081684 18.71632696 16.86577658 16 20 C15.01 20.33 14.02 20.66 13 21 C13 20.34 13 19.68 13 19 C6.4 19 -0.2 19 -7 19 C-7 18.34 -7 17.68 -7 17 C-5.37191406 17.03480469 -5.37191406 17.03480469 -3.7109375 17.0703125 C-2.26563193 17.0890827 -0.82031885 17.10728156 0.625 17.125 C1.69427734 17.15013672 1.69427734 17.15013672 2.78515625 17.17578125 C7.2612164 17.21684602 10.77949278 16.69086567 15 15 C10.05 13.02 10.05 13.02 5 11 C5 10.34 5 9.68 5 9 C4.34 9 3.68 9 3 9 C0.8125 6.1875 0.8125 6.1875 -1 3 C-0.67 2.01 -0.34 1.02 0 0 Z " fill="#89C874" transform="translate(120,103)"/>
<path d="M0 0 C7.91470588 -0.60882353 7.91470588 -0.60882353 11.5625 1.4375 C13.70276535 5.25275563 13.90310373 8.73444754 13 13 C11.0625 15.125 11.0625 15.125 8 16 C4.16903557 15.96036933 0.45612494 15.72806247 -3 14 C-3.125 11.125 -3.125 11.125 -3 8 C-1 6 -1 6 1.6015625 5.8046875 C2.59929687 5.82789063 3.59703125 5.85109375 4.625 5.875 C6.12933594 5.90207031 6.12933594 5.90207031 7.6640625 5.9296875 C8.43492188 5.95289063 9.20578125 5.97609375 10 6 C9.34 5.01 8.68 4.02 8 3 C6.02252878 2.63702064 6.02252878 2.63702064 3.875 2.8125 C2.59625 2.874375 1.3175 2.93625 0 3 C0 2.01 0 1.02 0 0 Z M0 10 C2.84826598 12.36692966 2.84826598 12.36692966 6.1875 11.625 C7.115625 11.41875 8.04375 11.2125 9 11 C9 10.67 9 10.34 9 10 C6.03 10 3.06 10 0 10 Z " fill="#BC3B33" transform="translate(73,153)"/>
<path d="M0 0 C2.5 2.1875 2.5 2.1875 5 5 C5.54269531 5.598125 6.08539063 6.19625 6.64453125 6.8125 C11 11.70857728 11 11.70857728 11 14 C7.91757006 13.65750778 6.96151658 12.9604476 4.75 10.6875 C-3.04476395 3.06988978 -11.64130367 3.25142467 -22 3 C-22 1.68 -22 0.36 -22 -1 C-14.13979212 -3.15665568 -7.65546619 -3.32846356 0 0 Z " fill="#72B961" transform="translate(172,104)"/>
<path d="M0 0 C4.02628409 -0.20472631 7.09381948 -0.28920655 10.9375 0.9375 C13.70762699 3.70762699 14.04463865 5.92376857 14.2578125 9.7734375 C14 12 14 12 12 15 C8.56313931 17.29124046 6.08887168 17.75947814 2 18 C1.34 16.68 0.68 15.36 0 14 C0.99 14 1.98 14 3 14 C3 13.34 3 12.68 3 12 C4.98 12 6.96 12 9 12 C9.33 10.68 9.66 9.36 10 8 C8.22825181 8.08723378 6.45752623 8.19541655 4.6875 8.3125 C3.70136719 8.37050781 2.71523437 8.42851562 1.69921875 8.48828125 C-1.24384457 9.04622813 -2.18182999 9.68540132 -4 12 C-3.125 7.125 -3.125 7.125 -2 6 C-0.14712498 5.92773498 1.70833878 5.9161878 3.5625 5.9375 C4.57441406 5.94652344 5.58632812 5.95554688 6.62890625 5.96484375 C7.80259766 5.98224609 7.80259766 5.98224609 9 6 C8.67 4.68 8.34 3.36 8 2 C5.03 2 2.06 2 -1 2 C-0.67 1.34 -0.34 0.68 0 0 Z " fill="#6FB657" transform="translate(160,153)"/>
<path d="M0 0 C0.99 1.485 0.99 1.485 2 3 C-1.00617269 6.00617269 -3.82381598 5.59585316 -8 6 C-8.33 7.98 -8.66 9.96 -9 12 C-6.03 12.33 -3.06 12.66 0 13 C0 13.99 0 14.98 0 16 C-1.60332791 16.08121924 -3.20784026 16.13929134 -4.8125 16.1875 C-6.15248047 16.23970703 -6.15248047 16.23970703 -7.51953125 16.29296875 C-10 16 -10 16 -11.76171875 14.796875 C-14.1777715 11.29093095 -14.35449773 7.15853101 -14 3 C-9.62213298 -1.9859041 -5.95538269 -2.5342054 0 0 Z " fill="#70B358" transform="translate(153,152)"/>
<path d="M0 0 C0.99 0.33 1.98 0.66 3 1 C3.74504043 8.8448375 -2.07026014 16.87760101 -6.8125 22.8125 C-7.534375 23.534375 -8.25625 24.25625 -9 25 C-9.66 25 -10.32 25 -11 25 C-11 25.66 -11 26.32 -11 27 C-16.14865844 31.89122552 -21.72627333 36 -29 36 C-29 36.66 -29 37.32 -29 38 C-32.63 38.99 -36.26 39.98 -40 41 C-40 40.34 -40 39.68 -40 39 C-38.20755859 38.36384766 -38.20755859 38.36384766 -36.37890625 37.71484375 C-23.14359557 32.88758623 -10.92858324 26.84254317 -3.8359375 13.87109375 C-2.90791572 11.7951505 -2.90791572 11.7951505 -2 9 C-3.98 11.64 -5.96 14.28 -8 17 C-8.99 16.67 -9.98 16.34 -11 16 C-10.236875 15.29875 -9.47375 14.5975 -8.6875 13.875 C-5.99679913 10.99657581 -4.62910276 8.55440601 -3 5 C-2.01612294 3.32376502 -1.02137457 1.65365406 0 0 Z " fill="#DD7B73" transform="translate(180,18)"/>
<path d="M0 0 C1.98 0 3.96 0 6 0 C6.33 0.99 6.66 1.98 7 3 C7.763125 3.28875 8.52625 3.5775 9.3125 3.875 C12.63260549 5.2648116 13.94307675 7.10507099 16 10 C15.67 10.66 15.34 11.32 15 12 C14.43152344 11.6390625 13.86304687 11.278125 13.27734375 10.90625 C8.3948144 7.97184171 4.85402531 6.00592023 -1 7 C-4.24642069 8.81799558 -6.83713342 10.8565223 -9.625 13.3125 C-12 15 -12 15 -14.3125 14.75 C-14.869375 14.5025 -15.42625 14.255 -16 14 C-14.37660195 12.29115995 -12.70680947 10.62553283 -11 9 C-10.34 9 -9.68 9 -9 9 C-9 8.34 -9 7.68 -9 7 C-3.58823529 3 -3.58823529 3 -1 3 C-0.67 2.01 -0.34 1.02 0 0 Z " fill="#B93526" transform="translate(96,78)"/>
<path d="M0 0 C1.32 0.33 2.64 0.66 4 1 C0.77645306 8.98211624 0.77645306 8.98211624 -2 12 C-2.66 12 -3.32 12 -4 12 C-4 12.66 -4 13.32 -4 14 C-5.725227 14.67679658 -7.45538939 15.34102 -9.1875 16 C-10.15042969 16.37125 -11.11335937 16.7425 -12.10546875 17.125 C-14.92182358 17.97636772 -17.08164439 18.17072647 -20 18 C-20.33 17.01 -20.66 16.02 -21 15 C-13.55030217 11.19196587 -13.55030217 11.19196587 -10.3125 10.0625 C-7.22346525 8.64321377 -5.35278383 6.41637258 -3 4 C-2.34 4 -1.68 4 -1 4 C-0.67 2.68 -0.34 1.36 0 0 Z " fill="#D05B55" transform="translate(180,50)"/>
<path d="M0 0 C0.66 0 1.32 0 2 0 C2.08126109 2.72977064 2.14061663 5.4571017 2.1875 8.1875 C2.21263672 8.95642578 2.23777344 9.72535156 2.26367188 10.51757812 C2.32377188 15.18534511 2.04102023 18.20792877 -1 22 C-3.7798816 23.3899408 -5.9186326 23.18488204 -9 23 C-12.7 21.6 -12.7 21.6 -14 19 C-14.06950541 17.45976004 -14.08452357 15.91665012 -14.0625 14.375 C-14.05347656 13.55773437 -14.04445312 12.74046875 -14.03515625 11.8984375 C-14.02355469 11.27195313 -14.01195312 10.64546875 -14 10 C-13.01 10.33 -12.02 10.66 -11 11 C-11 13.31 -11 15.62 -11 18 C-7.52176885 19.15941038 -5.54104422 18.70820884 -2 18 C-2 17.34 -2 16.68 -2 16 C-1.34 16 -0.68 16 0 16 C-1.08784968 12.75016865 -1.08784968 12.75016865 -3 10 C-4.51469448 9.76807135 -6.03754562 9.58784762 -7.5625 9.4375 C-8.38878906 9.35371094 -9.21507812 9.26992187 -10.06640625 9.18359375 C-10.70449219 9.12300781 -11.34257812 9.06242188 -12 9 C-11.67 8.34 -11.34 7.68 -11 7 C-8.71484375 6.5859375 -8.71484375 6.5859375 -5.9375 6.375 C-5.01839844 6.30023438 -4.09929687 6.22546875 -3.15234375 6.1484375 C-2.08693359 6.07496094 -2.08693359 6.07496094 -1 6 C-0.67 4.02 -0.34 2.04 0 0 Z " fill="#5AAA42" transform="translate(196,146)"/>
<path d="M0 0 C0.99 0.33 1.98 0.66 3 1 C2.34 1 1.68 1 1 1 C1.33 1.66 1.66 2.32 2 3 C4.31 3 6.62 3 9 3 C9.66 4.32 10.32 5.64 11 7 C5.555 7.495 5.555 7.495 0 8 C-0.66 10.31 -1.32 12.62 -2 15 C5.19544073 16.24488322 5.19544073 16.24488322 12.0625 14.5625 C12.701875 14.046875 13.34125 13.53125 14 13 C14.66 13 15.32 13 16 13 C16 11.02 16 9.04 16 7 C16.33 7 16.66 7 17 7 C17 10.3 17 13.6 17 17 C16.67 16.34 16.34 15.68 16 15 C14.989375 15.66 13.97875 16.32 12.9375 17 C9.16343343 19.15007429 6.37308068 19.48589785 2 19 C-0.8125 18 -0.8125 18 -3 17 C-3.66 17 -4.32 17 -5 17 C-5.05384521 14.70858714 -5.09272087 12.41681812 -5.125 10.125 C-5.14820312 8.84882813 -5.17140625 7.57265625 -5.1953125 6.2578125 C-5 3 -5 3 -3 1 C-2.67 2.65 -2.34 4.3 -2 6 C-1.34 6 -0.68 6 0 6 C-0.2784375 4.7934375 -0.2784375 4.7934375 -0.5625 3.5625 C-0.706875 2.716875 -0.85125 1.87125 -1 1 C-0.67 0.67 -0.34 0.34 0 0 Z " fill="#EC948D" transform="translate(72,152)"/>
<path d="M0 0 C0.99 0 1.98 0 3 0 C2.23762572 5.1841451 0.62306954 9.32774653 -3.0625 13.125 C-7.75927132 16.12293914 -13.11562028 19.40461438 -18.8125 18.60546875 C-19.534375 18.40566406 -20.25625 18.20585938 -21 18 C-20 15 -20 15 -17.453125 13.5703125 C-15.86757812 12.85488281 -15.86757812 12.85488281 -14.25 12.125 C-8.42557527 9.333698 -5.08855404 6.97217305 -1.375 1.6875 C-0.92125 1.130625 -0.4675 0.57375 0 0 Z " fill="#BA4336" transform="translate(180,39)"/>
<path d="M0 0 C0.36981556 3.25437695 0.33184503 4.57559955 -1.72265625 7.203125 C-6.39908129 11.29402103 -9.52261325 14 -16 14 C-17.258125 14.04125 -18.51625 14.0825 -19.8125 14.125 C-23 14 -23 14 -25 13 C-25 12.34 -25 11.68 -25 11 C-24.41992188 10.89042969 -23.83984375 10.78085938 -23.2421875 10.66796875 C-18.37119805 9.67930257 -14.43102629 8.32101377 -10 6 C-9.01 6 -8.02 6 -7 6 C-7 5.34 -7 4.68 -7 4 C-3.58823529 0 -3.58823529 0 0 0 Z " fill="#E18C81" transform="translate(176,66)"/>
<path d="M0 0 C6.15234375 -0.09765625 6.15234375 -0.09765625 8 0 C9 1 9 1 9.09765625 3.72265625 C9.08605469 4.82480469 9.07445313 5.92695313 9.0625 7.0625 C9.05347656 8.16722656 9.04445313 9.27195313 9.03515625 10.41015625 C9.02355469 11.26480469 9.01195313 12.11945313 9 13 C8.01 13.495 8.01 13.495 7 14 C7 12.02 7 10.04 7 8 C3.7 8 0.4 8 -3 8 C-1.23395095 11.11626617 -1.23395095 11.11626617 1.625 12.5625 C2.40875 13.036875 3.1925 13.51125 4 14 C4 14.66 4 15.32 4 16 C0.04 15.67 -3.92 15.34 -8 15 C-8 12.36 -8 9.72 -8 7 C-4.99221479 5.99740493 -2.46179353 5.69685358 0.6875 5.4375 C1.68136719 5.35371094 2.67523438 5.26992187 3.69921875 5.18359375 C4.45847656 5.12300781 5.21773437 5.06242188 6 5 C6 4.34 6 3.68 6 3 C4.02 2.34 2.04 1.68 0 1 C0 0.67 0 0.34 0 0 Z " fill="#BF3D34" transform="translate(52,153)"/>
<path d="M0 0 C0.99 0.66 1.98 1.32 3 2 C3.86625 1.29875 4.7325 0.5975 5.625 -0.125 C9 -2 9 -2 12.375 -1.25 C13.24125 -0.8375 14.1075 -0.425 15 0 C15 0.99 15 1.98 15 3 C14.67 2.67 14.34 2.34 14 2 C11.32941149 1.85884839 8.67567762 1.95752893 6 2 C5.01 4.64 4.02 7.28 3 10 C3.66 10 4.32 10 5 10 C5.33 9.34 5.66 8.68 6 8 C6.66 8.33 7.32 8.66 8 9 C8.625 11.5625 8.625 11.5625 9 14 C6.69 13.34 4.38 12.68 2 12 C1.80083984 11.04287109 1.80083984 11.04287109 1.59765625 10.06640625 C1.33275391 8.82697266 1.33275391 8.82697266 1.0625 7.5625 C0.88847656 6.73878906 0.71445313 5.91507813 0.53515625 5.06640625 C0.19247006 3.02338796 0.19247006 3.02338796 -1 2 C-3.03270562 1.76179079 -3.03270562 1.76179079 -5.375 1.75 C-6.16648437 1.72421875 -6.95796875 1.6984375 -7.7734375 1.671875 C-10.06030951 1.8304256 -10.06030951 1.8304256 -11.765625 3.3046875 C-13.83160742 6.14214436 -13.3505532 8.61131905 -13 12 C-11.63002843 14.87146994 -11.63002843 14.87146994 -10 17 C-13.16115776 15.63016497 -13.9927092 15.0109362 -16 12 C-16.25760279 9.30547479 -16.08900053 6.71451625 -16 4 C-15.34 4 -14.68 4 -14 4 C-13.773125 3.38125 -13.54625 2.7625 -13.3125 2.125 C-12 0 -12 0 -9.8125 -1.375 C-6.00894544 -2.22023435 -3.61510878 -1.33892918 0 0 Z " fill="#DB796E" transform="translate(113,152)"/>
<path d="M0 0 C2.5 1.5625 2.5 1.5625 4 4 C4.48505011 7.88040089 4.56851618 10.0761612 2.5 13.4375 C2.005 13.953125 1.51 14.46875 1 15 C-0.32 14.67 -1.64 14.34 -3 14 C-2.360625 13.62875 -1.72125 13.2575 -1.0625 12.875 C1.63858072 10.41947207 1.68407005 8.55421195 2 5 C-0.97 5 -3.94 5 -7 5 C-7.33 5.66 -7.66 6.32 -8 7 C-8.66 7 -9.32 7 -10 7 C-8.8141763 10.37503669 -7.72426311 12.64722731 -5 15 C-8.45835793 14.71180351 -9.78380733 14.21034962 -12.3125 11.75 C-14.12328851 8.7990854 -14.38684492 7.38489309 -14 4 C-13.01 4 -12.02 4 -11 4 C-10.67 3.01 -10.34 2.02 -10 1 C-6.79419594 -0.60290203 -3.47817686 -0.48117071 0 0 Z " fill="#75BD5C" transform="translate(213,153)"/>
<path d="M0 0 C4.83256305 0.41421969 6.82679218 2.46413986 10 6 C10.66 4.68 11.32 3.36 12 2 C14 5 14 5 13.625 8.1875 C13.41875 9.115625 13.2125 10.04375 13 11 C10.35798601 12.01429043 9.31786407 12.13577109 6.66796875 11.00390625 C5.84941406 10.52824219 5.03085938 10.05257812 4.1875 9.5625 C-0.12117575 7.29743992 -3.05260053 6.14371932 -8 7 C-11.22132295 8.73083907 -11.22132295 8.73083907 -14 11 C-14.78375 11.5775 -15.5675 12.155 -16.375 12.75 C-17.179375 13.36875 -17.179375 13.36875 -18 14 C-17.67 14.66 -17.34 15.32 -17 16 C-18.98 16 -20.96 16 -23 16 C-18.17192772 10.8701732 -12.16987587 4.51059704 -4.9375 3.625 C0.23238849 4.11737033 3.67596602 6.2545816 8 9 C5.89851796 5.01824456 3.63094642 2.64960955 0 0 Z " fill="#DE7F73" transform="translate(103,80)"/>
<path d="M0 0 C-0.33 0.70125 -0.66 1.4025 -1 2.125 C-2.09044562 5.26003116 -2.15322643 7.70563182 -2 11 C-1.401875 11.144375 -0.80375 11.28875 -0.1875 11.4375 C1.56150404 11.8872439 3.28677023 12.42892341 5 13 C6.72780266 12.02977977 6.72780266 12.02977977 8 10 C7.96726452 7.23385218 7.49404328 4.73969453 7 2 C7.99 2 8.98 2 10 2 C11.56935594 5.13871188 11.35201103 7.53855822 11 11 C8.875 13.9375 8.875 13.9375 6 16 C2.79647701 16.37688506 0.88861709 16.44430855 -2 15 C-2.33 17.31 -2.66 19.62 -3 22 C-3.66 22 -4.32 22 -5 22 C-5.08103404 19.08277452 -5.14051081 16.16780484 -5.1875 13.25 C-5.21263672 12.425 -5.23777344 11.6 -5.26367188 10.75 C-5.33772964 4.62789172 -5.33772964 4.62789172 -3.61328125 1.421875 C-2 0 -2 0 0 0 Z " fill="#BE3328" transform="translate(32,153)"/>
<path d="M0 0 C1.2065625 0.0309375 1.2065625 0.0309375 2.4375 0.0625 C2.210625 0.825625 1.98375 1.58875 1.75 2.375 C1.5953125 3.7053125 1.5953125 3.7053125 1.4375 5.0625 C2.77128575 6.8979799 2.77128575 6.8979799 4.4375 8.0625 C3.1175 8.3925 1.7975 8.7225 0.4375 9.0625 C1.076875 9.330625 1.71625 9.59875 2.375 9.875 C4.4375 11.0625 4.4375 11.0625 5.4375 14.0625 C2.5078125 13.28125 2.5078125 13.28125 -0.421875 12.5 C-2.85151861 11.92900651 -2.85151861 11.92900651 -6.5625 12.0625 C-6.8925 10.7425 -7.2225 9.4225 -7.5625 8.0625 C-6.5725 7.4025 -5.5825 6.7425 -4.5625 6.0625 C-3.90694881 3.53516765 -3.90694881 3.53516765 -3.5625 1.0625 C-2.5625 0.0625 -2.5625 0.0625 0 0 Z " fill="#D87971" transform="translate(53.5625,144.9375)"/>
<path d="M0 0 C2.05078125 0.03255208 4.1015625 0.06510417 6.15234375 0.09765625 C6.81234375 1.41765625 7.47234375 2.73765625 8.15234375 4.09765625 C5.18234375 3.76765625 2.21234375 3.43765625 -0.84765625 3.09765625 C-0.84765625 3.75765625 -0.84765625 4.41765625 -0.84765625 5.09765625 C2.45234375 6.08765625 5.75234375 7.07765625 9.15234375 8.09765625 C10.15234375 13.09765625 10.15234375 13.09765625 9.15234375 15.09765625 C7.17234375 15.09765625 5.19234375 15.09765625 3.15234375 15.09765625 C3.81234375 13.44765625 4.47234375 11.79765625 5.15234375 10.09765625 C3.50234375 10.09765625 1.85234375 10.09765625 0.15234375 10.09765625 C0.15234375 9.43765625 0.15234375 8.77765625 0.15234375 8.09765625 C-1.16765625 7.43765625 -2.48765625 6.77765625 -3.84765625 6.09765625 C-2.77957394 0.14691194 -2.77957394 0.14691194 0 0 Z " fill="#58AC3F" transform="translate(222.84765625,152.90234375)"/>
<path d="M0 0 C3.42201828 -0.37331109 5.90185629 -0.63763183 8.9375 1.125 C10.51813279 3.91435199 10.37902038 5.84149685 10 9 C8.9375 11.875 8.9375 11.875 7 14 C3.3125 14.3125 3.3125 14.3125 0 14 C-1.79885972 10.17742309 -2.36703674 7.2209225 -2 3 C-1.34 2.01 -0.68 1.02 0 0 Z M-1 4 C-0.67958603 6.60280568 -0.67958603 6.60280568 0 9 C2.90073181 9.67801034 2.90073181 9.67801034 6 10 C8.26839983 8.16734675 8.26839983 8.16734675 8.1875 5.4375 C8.27003323 3.05310277 8.27003323 3.05310277 7 2 C2.50114231 1.53277305 2.50114231 1.53277305 -1 4 Z " fill="#CA5C51" transform="translate(103,155)"/>
<path d="M0 0 C2.475 0.99 2.475 0.99 5 2 C5 2.66 5 3.32 5 4 C4.01 4.495 4.01 4.495 3 5 C3.2475 6.0725 3.495 7.145 3.75 8.25 C4 12 4 12 2.0625 14.4375 C1.381875 14.953125 0.70125 15.46875 0 16 C-0.66 15.67 -1.32 15.34 -2 15 C-1.505 14.608125 -1.01 14.21625 -0.5 13.8125 C1.45593143 11.44908285 1.24207973 9.98564997 1 7 C-1.31 6.67 -3.62 6.34 -6 6 C-6 8.31 -6 10.62 -6 13 C-5.01 13.33 -4.02 13.66 -3 14 C-3.99 14.33 -4.98 14.66 -6 15 C-8 13 -8 13 -8.3125 10.1875 C-7.95909909 6.58281073 -7.35009861 4.75528802 -5 2 C-2.3125 1.6875 -2.3125 1.6875 0 2 C0 1.34 0 0.68 0 0 Z " fill="#D05F54" transform="translate(37,151)"/>
<path d="M0 0 C2.0625 1.5625 2.0625 1.5625 3 4 C3.4055137 7.78479457 3.51161444 10.09304713 1.625 13.4375 C0 15 0 15 -2 15 C-1.67 14.505 -1.34 14.01 -1 13.5 C0.43636358 9.90909106 0.12851462 6.85543873 0 3 C-2.97 3 -5.94 3 -9 3 C-10.20272819 5.40545638 -10.10071472 6.94996953 -10.0625 9.625 C-10.05347656 10.44226563 -10.04445313 11.25953125 -10.03515625 12.1015625 C-10.02355469 12.72804687 -10.01195313 13.35453125 -10 14 C-12.62176661 11.71203922 -12.97072991 11.22997927 -13.4375 7.5625 C-13 4 -13 4 -11.5625 1.5625 C-7.77787823 -0.7451962 -4.31897247 -0.79344759 0 0 Z " fill="#BA3528" transform="translate(112,153)"/>
<path d="M0 0 C0 0.66 0 1.32 0 2 C6.6 2 13.2 2 20 2 C19.67 2.66 19.34 3.32 19 4 C8.24179649 4.30384048 -1.65608586 4.46861792 -12 1 C-12 0.34 -12 -0.32 -12 -1 C-7.31034294 -2.11658501 -4.46236469 -1.80619523 0 0 Z " fill="#6FB75E" transform="translate(113,120)"/>
<path d="M0 0 C1.32 0.33 2.64 0.66 4 1 C4 7.93 4 14.86 4 22 C2.68 22.33 1.36 22.66 0 23 C0 15.41 0 7.82 0 0 Z " fill="#C74D43" transform="translate(64,151)"/>
<path d="M0 0 C5.26053037 -0.31563182 8.44573816 0.33409063 13 3 C13.33 2.34 13.66 1.68 14 1 C17.84783484 4.06077771 21.14732623 6.94042579 24 11 C24 11.66 24 12.32 24 13 C20.91757006 12.65750778 19.96151658 11.9604476 17.75 9.6875 C12.59964887 4.6542023 7.09601501 2.59133458 0 2 C0 1.34 0 0.68 0 0 Z " fill="#81C472" transform="translate(159,105)"/>
<path d="M0 0 C1.65 0.33 3.3 0.66 5 1 C4.34 2.32 3.68 3.64 3 5 C3.99 5.66 4.98 6.32 6 7 C2.69628826 9.2024745 1.83121331 9.5345879 -2 9 C-5.3125 7.1875 -5.3125 7.1875 -8 5 C-8 4.01 -8 3.02 -8 2 C-5.69 2 -3.38 2 -1 2 C-0.67 1.34 -0.34 0.68 0 0 Z " fill="#73B860" transform="translate(224,162)"/>
<path d="M0 0 C0.53625 0.268125 1.0725 0.53625 1.625 0.8125 C-4.125 4.8125 -4.125 4.8125 -6.375 4.8125 C-6.375 5.4725 -6.375 6.1325 -6.375 6.8125 C-11.85857641 11.58308184 -17.28397923 13.68694115 -24.375 14.8125 C-24.375 15.4725 -24.375 16.1325 -24.375 16.8125 C-22.395 16.8125 -20.415 16.8125 -18.375 16.8125 C-18.045 17.4725 -17.715 18.1325 -17.375 18.8125 C-20.75 19 -20.75 19 -24.375 18.8125 C-25.035 17.8225 -25.695 16.8325 -26.375 15.8125 C-24.14774507 13.31656034 -22.15293477 12.11864646 -19.0625 10.875 C-13.80976457 8.63111302 -9.48587989 5.82391152 -5.25 2 C-2.375 -0.1875 -2.375 -0.1875 0 0 Z " fill="#D9796F" transform="translate(93.375,80.1875)"/>
<path d="M0 0 C2.31 0 4.62 0 7 0 C7 0.66 7 1.32 7 2 C1.80769231 6.73076923 1.80769231 6.73076923 -2 8 C-2 7.34 -2 6.68 -2 6 C-8.6 6 -15.2 6 -22 6 C-22 5.34 -22 4.68 -22 4 C-20.37191406 4.03480469 -20.37191406 4.03480469 -18.7109375 4.0703125 C-17.26563193 4.0890827 -15.82031885 4.10728156 -14.375 4.125 C-13.30572266 4.15013672 -13.30572266 4.15013672 -12.21484375 4.17578125 C-7.7387836 4.21684602 -4.22050722 3.69086567 0 2 C0 1.34 0 0.68 0 0 Z " fill="#9FCA8E" transform="translate(135,116)"/>
<path d="M0 0 C0.99 0.33 1.98 0.66 3 1 C-3.05712534 4.78062186 -9.04389199 6.70672872 -15.88476562 8.62304688 C-20.94723664 10.12016763 -25.03647562 12.0117842 -29.39086914 15.01391602 C-31 16 -31 16 -33 16 C-33 15.34 -33 14.68 -33 14 C-26.35397271 9.09459891 -19.71198621 6.46843036 -11.8125 4.4375 C-10.21351285 4.024652 -8.61578851 3.60687394 -7.01953125 3.18359375 C-6.31932861 3.00368896 -5.61912598 2.82378418 -4.89770508 2.63842773 C-2.70809965 1.99349384 -2.70809965 1.99349384 0 0 Z " fill="#DB7870" transform="translate(158,43)"/>
<path d="M0 0 C3.3 0 6.6 0 10 0 C10.59732819 2.76264289 11 5.16032769 11 8 C8.00261059 9.99825961 7.36652492 10.27550398 4 10.25 C3.319375 10.25515625 2.63875 10.2603125 1.9375 10.265625 C0 10 0 10 -3 8 C-2.67 7.34 -2.34 6.68 -2 6 C2.455 6.99 2.455 6.99 7 8 C7 7.34 7 6.68 7 6 C6.34 6 5.68 6 5 6 C5.33 5.01 5.66 4.02 6 3 C6.66 2.67 7.32 2.34 8 2 C5.36 2 2.72 2 0 2 C0 1.34 0 0.68 0 0 Z " fill="#DE7467" transform="translate(49,161)"/>
<path d="M0 0 C1.98 0 3.96 0 6 0 C6.33 0.99 6.66 1.98 7 3 C7.763125 3.28875 8.52625 3.5775 9.3125 3.875 C12.63260549 5.2648116 13.94307675 7.10507099 16 10 C15.67 10.66 15.34 11.32 15 12 C13.53936857 11.21258141 12.08156827 10.4199095 10.625 9.625 C9.40683594 8.96371094 9.40683594 8.96371094 8.1640625 8.2890625 C6 7 6 7 4 5 C4.33 4.34 4.66 3.68 5 3 C3.02 3.33 1.04 3.66 -1 4 C-0.67 2.68 -0.34 1.36 0 0 Z " fill="#C13E35" transform="translate(96,78)"/>
<path d="M0 0 C1.51400391 0.01740234 1.51400391 0.01740234 3.05859375 0.03515625 C4.07050781 0.04417969 5.08242187 0.05320313 6.125 0.0625 C7.29869141 0.07990234 7.29869141 0.07990234 8.49609375 0.09765625 C8.16609375 1.74765625 7.83609375 3.39765625 7.49609375 5.09765625 C6.17609375 4.76765625 4.85609375 4.43765625 3.49609375 4.09765625 C3.82609375 3.76765625 4.15609375 3.43765625 4.49609375 3.09765625 C2.84609375 3.09765625 1.19609375 3.09765625 -0.50390625 3.09765625 C0.15609375 3.42765625 0.81609375 3.75765625 1.49609375 4.09765625 C1.49609375 4.75765625 1.49609375 5.41765625 1.49609375 6.09765625 C0.50609375 6.59265625 0.50609375 6.59265625 -0.50390625 7.09765625 C-0.83390625 8.08765625 -1.16390625 9.07765625 -1.50390625 10.09765625 C-2.82390625 8.77765625 -4.14390625 7.45765625 -5.50390625 6.09765625 C-3.20675713 0.12506853 -3.20675713 0.12506853 0 0 Z " fill="#82BB6B" transform="translate(161.50390625,160.90234375)"/>
<path d="M0 0 C3.17896475 0.06935923 5.42117618 0.44745079 8.125 2.25 C5.55286866 3.86949011 4.44830841 4.29408751 1.375 3.875 C0.6325 3.66875 -0.11 3.4625 -0.875 3.25 C-0.545 4.24 -0.215 5.23 0.125 6.25 C0.785 6.58 1.445 6.91 2.125 7.25 C2.125 7.91 2.125 8.57 2.125 9.25 C0.805 9.58 -0.515 9.91 -1.875 10.25 C-1.875 9.59 -1.875 8.93 -1.875 8.25 C-3.525 8.58 -5.175 8.91 -6.875 9.25 C-5.88944043 0.3799639 -5.88944043 0.3799639 0 0 Z " fill="#C03D37" transform="translate(122.875,152.75)"/>
<path d="M0 0 C2.81080836 1.14726872 4.1782406 1.94701628 6.0625 4.25 C5.4375 6.1875 5.4375 6.1875 4.0625 8.25 C0.7916021 9.24549067 -1.10483041 9.57868536 -4.3125 8.3125 C-4.84875 7.961875 -5.385 7.61125 -5.9375 7.25 C-5.6075 6.26 -5.2775 5.27 -4.9375 4.25 C0.6875 4 0.6875 4 4.0625 6.25 C3.4025 5.26 2.7425 4.27 2.0625 3.25 C-1.50519552 2.51393501 -1.50519552 2.51393501 -4.9375 2.25 C-4.9375 1.59 -4.9375 0.93 -4.9375 0.25 C-2.9375 -0.75 -2.9375 -0.75 0 0 Z " fill="#9AD47F" transform="translate(226.9375,150.75)"/>
<path d="M0 0 C3.09470902 1.63494062 5.10074706 3.14505735 6.875 6.25 C3.875 6.25 3.875 6.25 1.3125 4.875 C-3.06048599 2.80777026 -7.38029748 2.04703501 -12.125 1.25 C-12.125 0.59 -12.125 -0.07 -12.125 -0.75 C-7.39919873 -2.32526709 -4.48473341 -2.0983615 0 0 Z " fill="#6EA85C" transform="translate(169.125,119.75)"/>
<path d="M0 0 C0.33 0.66 0.66 1.32 1 2 C0 4 -1 6 -2 8 C-1.67 8.66 -1.34 9.32 -1 10 C0 13 0 13 -0.77734375 15.04296875 C-1.16019531 15.75066406 -1.54304688 16.45835938 -1.9375 17.1875 C-2.50791016 18.26064453 -2.50791016 18.26064453 -3.08984375 19.35546875 C-3.39019531 19.89816406 -3.69054687 20.44085938 -4 21 C-4.33 19.68 -4.66 18.36 -5 17 C-5.66 17 -6.32 17 -7 17 C-4.27272727 4.27272727 -4.27272727 4.27272727 0 0 Z " fill="#BC3934" transform="translate(121,62)"/>
<path d="M0 0 C0.99 0 1.98 0 3 0 C2.22200558 5.29036203 0.61892368 9.46858571 -3.3125 13.1875 C-10.44827586 18 -10.44827586 18 -15 18 C-15 17.34 -15 16.68 -15 16 C-14.32453125 15.69707031 -13.6490625 15.39414062 -12.953125 15.08203125 C-7.89368037 12.705847 -4.07052221 10.8849217 -1 6 C-1.99 6.33 -2.98 6.66 -4 7 C-2.79618552 4.50638429 -1.54571278 2.31856917 0 0 Z " fill="#DD8273" transform="translate(180,39)"/>
<path d="M0 0 C1.43655854 -0.08131463 2.8744483 -0.13933559 4.3125 -0.1875 C5.51326172 -0.23970703 5.51326172 -0.23970703 6.73828125 -0.29296875 C9 0 9 0 10.79296875 1.13671875 C12 3 12 3 12 9 C8.04 8.67 4.08 8.34 0 8 C0.33 7.34 0.66 6.68 1 6 C3.97 6 6.94 6 10 6 C9.34 5.01 8.68 4.02 8 3 C6.02252878 2.63702064 6.02252878 2.63702064 3.875 2.8125 C2.59625 2.874375 1.3175 2.93625 0 3 C0 2.01 0 1.02 0 0 Z " fill="#BA2F21" transform="translate(73,153)"/>
<path d="M0 0 C2.25998483 0.83282523 4.23035166 1.81684366 6.30859375 3.02734375 C8.14838732 4.1599035 8.14838732 4.1599035 11 5 C12.1875 7.5625 12.1875 7.5625 13 10 C9.29437607 10 8.24352956 8.65487692 5.53515625 6.3125 C2.16456007 3.43076891 -0.08754687 2.08003975 -4.5625 1.6875 C-7.6741181 1.97037437 -9.40937502 2.34200001 -12 4 C-12 3.01 -12 2.02 -12 1 C-8.28211807 -0.85894096 -4.05664412 -0.45008022 0 0 Z " fill="#A7D398" transform="translate(167,122)"/>
<path d="M0 0 C0.99 0.33 1.98 0.66 3 1 C2.34 1 1.68 1 1 1 C1.33 1.66 1.66 2.32 2 3 C4.31 3 6.62 3 9 3 C9.66 4.32 10.32 5.64 11 7 C9.22932584 7.16834933 7.45845388 7.33461909 5.6875 7.5 C4.70136719 7.5928125 3.71523437 7.685625 2.69921875 7.78125 C0 8 0 8 -3 8 C-2.67 7.34 -2.34 6.68 -2 6 C-1.34 6 -0.68 6 0 6 C-0.2784375 4.7934375 -0.2784375 4.7934375 -0.5625 3.5625 C-0.706875 2.716875 -0.85125 1.87125 -1 1 C-0.67 0.67 -0.34 0.34 0 0 Z " fill="#E08177" transform="translate(72,152)"/>
<path d="M0 0 C0.66 0 1.32 0 2 0 C2 0.66 2 1.32 2 2 C2.99 1.67 3.98 1.34 5 1 C5.66 1.99 6.32 2.98 7 4 C8.299375 4.7734375 8.299375 4.7734375 9.625 5.5625 C10.40875 6.036875 11.1925 6.51125 12 7 C12 7.66 12 8.32 12 9 C8.04 8.67 4.08 8.34 0 8 C0 5.36 0 2.72 0 0 Z " fill="#C24942" transform="translate(44,160)"/>
<path d="M0 0 C-1.98 0.99 -3.96 1.98 -6 3 C-5.39671875 2.79503906 -4.7934375 2.59007813 -4.171875 2.37890625 C-3.37265625 2.10949219 -2.5734375 1.84007812 -1.75 1.5625 C-0.96109375 1.29566406 -0.1721875 1.02882812 0.640625 0.75390625 C2.74821988 0.08045292 4.84753973 -0.49150595 7 -1 C6.01 -0.505 6.01 -0.505 5 0 C5 0.66 5 1.32 5 2 C3.274773 2.67679658 1.54461061 3.34102 -0.1875 4 C-1.15042969 4.37125 -2.11335937 4.7425 -3.10546875 5.125 C-5.92182358 5.97636772 -8.08164439 6.17072647 -11 6 C-11.33 5.01 -11.66 4.02 -12 3 C-10.75823305 2.29773859 -9.50614401 1.61370891 -8.25 0.9375 C-7.20585937 0.36322266 -7.20585937 0.36322266 -6.140625 -0.22265625 C-3.63859372 -1.1312406 -2.4667645 -0.88336837 0 0 Z " fill="#E5958F" transform="translate(171,62)"/>
<path d="M0 0 C0.99 0.33 1.98 0.66 3 1 C3.25 3.25 3.25 3.25 3 6 C1 8.3125 1 8.3125 -1 10 C-1 9.01 -1 8.02 -1 7 C-3.31 10.3 -5.62 13.6 -8 17 C-8.99 16.67 -9.98 16.34 -11 16 C-10.236875 15.29875 -9.47375 14.5975 -8.6875 13.875 C-5.99679913 10.99657581 -4.62910276 8.55440601 -3 5 C-2.01612294 3.32376502 -1.02137457 1.65365406 0 0 Z " fill="#DB8983" transform="translate(180,18)"/>
<path d="M0 0 C-0.33 0.639375 -0.66 1.27875 -1 1.9375 C-2.12312243 5.37706244 -2.09397339 8.06195736 -2.00390625 11.640625 C-1.99808692 15.1555006 -2.49451228 18.52477195 -3 22 C-3.66 22 -4.32 22 -5 22 C-5.08103404 19.08277452 -5.14051081 16.16780484 -5.1875 13.25 C-5.21263672 12.425 -5.23777344 11.6 -5.26367188 10.75 C-5.33772964 4.62789172 -5.33772964 4.62789172 -3.61328125 1.421875 C-2 0 -2 0 0 0 Z " fill="#B8301B" transform="translate(32,153)"/>
<path d="M0 0 C0.66 0 1.32 0 2 0 C2 0.66 2 1.32 2 2 C2.99 2.33 3.98 2.66 5 3 C3.35 3.66 1.7 4.32 0 5 C0 5.66 0 6.32 0 7 C-3.96 8.98 -3.96 8.98 -8 11 C-8.66 10.34 -9.32 9.68 -10 9 C-7.69 8.01 -5.38 7.02 -3 6 C-5.64 6.33 -8.28 6.66 -11 7 C-8.31168909 3.67914534 -4.87808588 2.57996092 -1 1 C-0.67 0.67 -0.34 0.34 0 0 Z " fill="#79B860" transform="translate(155,119)"/>
<path d="M0 0 C0.66 0.66 1.32 1.32 2 2 C1.24203125 2.61488281 1.24203125 2.61488281 0.46875 3.2421875 C-0.1809375 3.78101563 -0.830625 4.31984375 -1.5 4.875 C-2.1496875 5.40867187 -2.799375 5.94234375 -3.46875 6.4921875 C-4.22671875 7.23855469 -4.22671875 7.23855469 -5 8 C-5 8.66 -5 9.32 -5 10 C-4.34 10.33 -3.68 10.66 -3 11 C-5.64 12.65 -8.28 14.3 -11 16 C-11 15.01 -11 14.02 -11 13 C-11.99 12.67 -12.98 12.34 -14 12 C-12.02 11.01 -10.04 10.02 -8 9 C-8 8.34 -8 7.68 -8 7 C-6.50390625 5.78125 -6.50390625 5.78125 -4.5625 4.5 C-1.77468153 2.7134637 -1.77468153 2.7134637 0 0 Z " fill="#CC4D46" transform="translate(168,35)"/>
<path d="M0 0 C3.5219721 -0.08004482 6.61981469 -0.04005702 10 1 C9.34 2.65 8.68 4.3 8 6 C7.34 6 6.68 6 6 6 C6.33 7.32 6.66 8.64 7 10 C6.01 10.33 5.02 10.66 4 11 C4 10.34 4 9.68 4 9 C3.34 9 2.68 9 2 9 C2 8.34 2 7.68 2 7 C2.99 7 3.98 7 5 7 C5 6.34 5 5.68 5 5 C3.35 4.67 1.7 4.34 0 4 C0.66 3.67 1.32 3.34 2 3 C2 2.34 2 1.68 2 1 C1.34 0.67 0.68 0.34 0 0 Z " fill="#E78A77" transform="translate(120,155)"/>
<path d="M0 0 C1.98 0 3.96 0 6 0 C4.68 0.33 3.36 0.66 2 1 C2 1.66 2 2.32 2 3 C4.97 3.495 4.97 3.495 8 4 C7.67 5.32 7.34 6.64 7 8 C6.67 8 6.34 8 6 8 C5.67 8.66 5.34 9.32 5 10 C3.02 8.35 1.04 6.7 -1 5 C-0.67 3.35 -0.34 1.7 0 0 Z " fill="#8ACB75" transform="translate(99,118)"/>
<path d="M0 0 C0.33 0.99 0.66 1.98 1 3 C0.01 3.66 -0.98 4.32 -2 5 C-2 4.34 -2 3.68 -2 3 C-2.99 3.66 -3.98 4.32 -5 5 C-5.58481121 7.88595946 -5.58481121 7.88595946 -5.6875 11.125 C-5.75324219 12.22070312 -5.81898437 13.31640625 -5.88671875 14.4453125 C-5.94279297 15.70988281 -5.94279297 15.70988281 -6 17 C-6.66 17 -7.32 17 -8 17 C-8.0810206 14.89646505 -8.13919907 12.79204048 -8.1875 10.6875 C-8.22230469 9.51574219 -8.25710937 8.34398437 -8.29296875 7.13671875 C-8 4 -8 4 -6.65625 2.125 C-4.50758681 0.66553066 -2.55109274 0.34474226 0 0 Z " fill="#B53D32" transform="translate(98,152)"/>
<path d="M0 0 C0.66 0 1.32 0 2 0 C2.04898438 0.62648437 2.09796875 1.25296875 2.1484375 1.8984375 C2.22320312 2.71570313 2.29796875 3.53296875 2.375 4.375 C2.44460937 5.18710938 2.51421875 5.99921875 2.5859375 6.8359375 C2.82892588 9.20334191 2.82892588 9.20334191 5 11 C7.65537372 11.56520003 10.29144713 11.73788198 13 12 C12.67 12.99 12.34 13.98 12 15 C9.24430327 15.50103577 7.53229217 15.33282268 5.14453125 13.83984375 C2.29144067 11.53972331 0.31960055 9.83895144 -1 6.375 C-1 4.05145657 -0.7333024 2.1999072 0 0 Z " fill="#8DC57B" transform="translate(138,156)"/>
<path d="M0 0 C0.33 0 0.66 0 1 0 C1.37017995 5.42930591 1.37017995 5.42930591 -0.5 8.3125 C-0.995 8.869375 -1.49 9.42625 -2 10 C-2 10.33 -2 10.66 -2 11 C-3.98 11 -5.96 11 -8 11 C-9.64826111 8.03312999 -10.44271087 5.34373475 -11 2 C-10.34 2 -9.68 2 -9 2 C-8.34 3.32 -7.68 4.64 -7 6 C-5.02 5.67 -3.04 5.34 -1 5 C-0.67 3.35 -0.34 1.7 0 0 Z " fill="#83C472" transform="translate(214,158)"/>
<path d="M0 0 C2.31 0.66 4.62 1.32 7 2 C5.68 2.33 4.36 2.66 3 3 C4.23263349 6.69790046 5.20052451 6.9354846 8.5625 8.6875 C9.38878906 9.12449219 10.21507812 9.56148437 11.06640625 10.01171875 C11.70449219 10.33785156 12.34257812 10.66398437 13 11 C9.50340636 12.18346246 9.0859242 12.0391935 5.4375 10.375 C2.27060802 8.40675961 0.44383042 6.51933665 -1 3 C-0.67 2.01 -0.34 1.02 0 0 Z " fill="#5DAB46" transform="translate(122,103)"/>
<path d="M0 0 C0.66 0.33 1.32 0.66 2 1 C1.505 1.350625 1.01 1.70125 0.5 2.0625 C-1.82091376 5.06034694 -1.45113866 7.32644233 -1 11 C0.85420839 13.44098818 0.85420839 13.44098818 3 15 C-0.45835793 14.71180351 -1.78380733 14.21034962 -4.3125 11.75 C-6.12328851 8.7990854 -6.38684492 7.38489309 -6 4 C-5.01 4 -4.02 4 -3 4 C-2.67 3.01 -2.34 2.02 -2 1 C-1.34 0.67 -0.68 0.34 0 0 Z " fill="#57A744" transform="translate(205,153)"/>
<path d="M0 0 C3.63 0 7.26 0 11 0 C10.67 1.65 10.34 3.3 10 5 C8.68 4.67 7.36 4.34 6 4 C6.33 3.67 6.66 3.34 7 3 C5.68 3 4.36 3 3 3 C3.33 3.66 3.66 4.32 4 5 C2.35 4.67 0.7 4.34 -1 4 C-0.67 2.68 -0.34 1.36 0 0 Z " fill="#E8877B" transform="translate(73,161)"/>
<path d="M0 0 C6.3782235 -0.36103152 6.3782235 -0.36103152 8.9375 1.125 C10.54125059 3.95514811 10.53083754 5.81497476 10 9 C7.5 10.875 7.5 10.875 5 12 C5.33 11.443125 5.66 10.88625 6 10.3125 C7.1309601 7.69715478 7.15662974 5.8193354 7 3 C4.36 3 1.72 3 -1 3 C-0.67 2.01 -0.34 1.02 0 0 Z " fill="#D86962" transform="translate(103,155)"/>
<path d="M0 0 C0.33 0.66 0.66 1.32 1 2 C2.65 2 4.3 2 6 2 C4.71735273 4.56529454 3.77227651 4.66499863 1.125 5.625 C0.07699219 6.01558594 0.07699219 6.01558594 -0.9921875 6.4140625 C-3 7 -3 7 -6 7 C-6.33 5.35 -6.66 3.7 -7 2 C-2.25 0 -2.25 0 0 0 Z " fill="#87C673" transform="translate(149,104)"/>
<path d="M0 0 C0.66 0.33 1.32 0.66 2 1 C0.84826645 3.46800047 -0.04783565 5.04783565 -2 7 C-6.12199405 8.45033124 -8.8172493 9.29904812 -13 8 C-12.22914063 7.59007813 -11.45828125 7.18015625 -10.6640625 6.7578125 C-9.66117188 6.21898438 -8.65828125 5.68015625 -7.625 5.125 C-6.62726563 4.59132813 -5.62953125 4.05765625 -4.6015625 3.5078125 C-1.94651605 2.1179862 -1.94651605 2.1179862 0 0 Z " fill="#C24945" transform="translate(173,69)"/>
<path d="M0 0 C0 0.99 0 1.98 0 3 C-0.33 3.33 -0.66 3.66 -1 4 C-1.04092937 6.33297433 -1.04241723 8.66705225 -1 11 C-3.31 11.66 -5.62 12.32 -8 13 C-7.67 12.34 -7.34 11.68 -7 11 C-6.34 11 -5.68 11 -5 11 C-5.33 10.34 -5.66 9.68 -6 9 C-6.99 9 -7.98 9 -9 9 C-9 8.34 -9 7.68 -9 7 C-7.35 7 -5.7 7 -4 7 C-3.8453125 6.1028125 -3.8453125 6.1028125 -3.6875 5.1875 C-2.91123545 2.71756736 -1.92911079 1.67748765 0 0 Z " fill="#95C886" transform="translate(158,157)"/>
<path d="M0 0 C4.84981776 -0.34641555 7.8693377 0.40632832 12 3 C12.33 3.99 12.66 4.98 13 6 C11.046875 5.47916667 9.09375 4.95833333 7.140625 4.4375 C4.71098139 3.86650651 4.71098139 3.86650651 1 4 C0.67 2.68 0.34 1.36 0 0 Z " fill="#DA655E" transform="translate(46,153)"/>
<path d="M0 0 C4 0 4 0 6.0625 1.625 C9.49696451 5.83498876 11.48622931 9.48940113 11 15 C9.68 15 8.36 15 7 15 C7.226875 14.46375 7.45375 13.9275 7.6875 13.375 C8.1555704 9.81766495 6.84920399 8.02036652 5 5 C2.43802877 2.18643108 2.43802877 2.18643108 0 0 Z " fill="#DB8983" transform="translate(88,96)"/>
<path d="M0 0 C-3 2 -3 2 -6 3 C-7.20272819 5.40545638 -7.10071472 6.94996953 -7.0625 9.625 C-7.05347656 10.44226563 -7.04445313 11.25953125 -7.03515625 12.1015625 C-7.02355469 12.72804687 -7.01195313 13.35453125 -7 14 C-9.62176661 11.71203922 -9.97072991 11.22997927 -10.4375 7.5625 C-10 4 -10 4 -8.375 1.5625 C-5.397402 -0.39644605 -3.49644963 -0.31785906 0 0 Z " fill="#B73323" transform="translate(109,153)"/>
<path d="M0 0 C0.66 0.33 1.32 0.66 2 1 C-1.46741134 3.95749791 -4.86873527 6.07848152 -9 8 C-9 8.99 -9 9.98 -9 11 C-10.65 10.67 -12.3 10.34 -14 10 C-13 7 -13 7 -10.3125 5.4296875 C-9.219375 4.91664062 -8.12625 4.40359375 -7 3.875 C-3.25198879 2.31487213 -3.25198879 2.31487213 0 0 Z " fill="#E08A84" transform="translate(173,47)"/>
<path d="M0 0 C0.99 0.4021875 0.99 0.4021875 2 0.8125 C9.81836689 4.00918444 9.81836689 4.00918444 18 6 C18 6.33 18 6.66 18 7 C15.65829903 7.04878544 13.34044694 7.0483927 11 7 C9.94039062 6.99419922 9.94039062 6.99419922 8.859375 6.98828125 C6.75 6.875 6.75 6.875 3 6 C1 2.9375 1 2.9375 0 0 Z " fill="#60AE4A" transform="translate(103,124)"/>
<path d="M0 0 C4.29 0 8.58 0 13 0 C13 1.98 13 3.96 13 6 C12.67 4.68 12.34 3.36 12 2 C5.565 2.495 5.565 2.495 -1 3 C-0.67 2.01 -0.34 1.02 0 0 Z " fill="#BB2F20" transform="translate(47,159)"/>
<path d="M0 0 C0.66 0.33 1.32 0.66 2 1 C-1.38583802 4.13107836 -3.71109462 4.33550778 -8.25 4.1875 C-9.86648437 4.14689453 -9.86648437 4.14689453 -11.515625 4.10546875 C-12.74539062 4.05326172 -12.74539062 4.05326172 -14 4 C-14 3.34 -14 2.68 -14 2 C-13.24074219 1.93941406 -12.48148438 1.87882812 -11.69921875 1.81640625 C-10.70535156 1.73261719 -9.71148437 1.64882812 -8.6875 1.5625 C-7.70136719 1.48128906 -6.71523437 1.40007812 -5.69921875 1.31640625 C-2.90624401 1.08187441 -2.90624401 1.08187441 0 0 Z " fill="#D97B70" transform="translate(167,76)"/>
<path d="M0 0 C1.65 0 3.3 0 5 0 C5.625 1.875 5.625 1.875 6 4 C5.34 4.66 4.68 5.32 4 6 C1.9375 5.8125 1.9375 5.8125 0 5 C-0.33 4.01 -0.66 3.02 -1 2 C-0.67 1.34 -0.34 0.68 0 0 Z " fill="#E89189" transform="translate(63,144)"/>
<path d="M0 0 C0.66 0.33 1.32 0.66 2 1 C-0.07143201 5.03384128 -1.96615872 6.92856799 -6 9 C-6.33 8.01 -6.66 7.02 -7 6 C-4.69 4.02 -2.38 2.04 0 0 Z " fill="#BF2E25" transform="translate(169,37)"/>
<path d="M0 0 C0 0.66 0 1.32 0 2 C-1.828125 3.40234375 -1.828125 3.40234375 -4.25 4.9375 C-7.25841232 6.8595412 -10.16833989 8.82429785 -13 11 C-13.66 10.67 -14.32 10.34 -15 10 C-13.21024844 8.51851668 -11.41813943 7.03988094 -9.625 5.5625 C-8.62726563 4.73878906 -7.62953125 3.91507813 -6.6015625 3.06640625 C-2.74102079 0 -2.74102079 0 0 0 Z " fill="#D36B5B" transform="translate(140,58)"/>
<path d="M0 0 C1.32 0.66 2.64 1.32 4 2 C3.01 3.485 3.01 3.485 2 5 C-0.00120436 5.31765149 -2.00730096 5.6304797 -4.02734375 5.7890625 C-6.21037625 5.95147714 -6.21037625 5.95147714 -9 7 C-8.34 5.68 -7.68 4.36 -7 3 C-4.36 3 -1.72 3 1 3 C0.67 2.01 0.34 1.02 0 0 Z " fill="#85CB73" transform="translate(151,152)"/>
<path d="M0 0 C0 0.33 0 0.66 0 1 C-1.65 1 -3.3 1 -5 1 C-5 1.99 -5 2.98 -5 4 C-6.32 4 -7.64 4 -9 4 C-9.33 3.34 -9.66 2.68 -10 2 C-12.52733235 1.34444881 -12.52733235 1.34444881 -15 1 C-15 0.67 -15 0.34 -15 0 C-9.65370398 -1.0024305 -5.37625234 -0.84888195 0 0 Z " fill="#5EAA47" transform="translate(148,107)"/>
<path d="M0 0 C0.66 0 1.32 0 2 0 C2.33 0.66 2.66 1.32 3 2 C4.32 2 5.64 2 7 2 C9 2 11 2 13 2 C13 2.99 13 3.98 13 5 C11.39667209 5.08121924 9.79215974 5.13929134 8.1875 5.1875 C7.29417969 5.22230469 6.40085938 5.25710937 5.48046875 5.29296875 C3 5 3 5 1.17578125 3.61328125 C0 2 0 2 0 0 Z " fill="#5BA641" transform="translate(140,163)"/>
<path d="M0 0 C0.99 0.33 1.98 0.66 3 1 C3.36923077 7.4 3.36923077 7.4 1.5 10.4375 C1.005 10.953125 0.51 11.46875 0 12 C-1.32 11.67 -2.64 11.34 -4 11 C-3.34 10.67 -2.68 10.34 -2 10 C0.17282569 8.23173046 0.17282569 8.23173046 0.265625 6.01953125 C0.25140615 4.01111857 0.13142025 2.00415878 0 0 Z " fill="#5AAA3E" transform="translate(214,156)"/>
<path d="M0 0 C1.98 0.495 1.98 0.495 4 1 C4 2.65 4 4.3 4 6 C3.34 6 2.68 6 2 6 C1.67 6.66 1.34 7.32 1 8 C0.34 7.34 -0.32 6.68 -1 6 C-0.625 2.875 -0.625 2.875 0 0 Z " fill="#D88283" transform="translate(95,87)"/>
<path d="M0 0 C0 0.99 0 1.98 0 3 C-2.99738941 4.99825961 -3.63347508 5.27550398 -7 5.25 C-7.680625 5.25515625 -8.36125 5.2603125 -9.0625 5.265625 C-11 5 -11 5 -14 3 C-13.67 2.34 -13.34 1.68 -13 1 C-12.09507813 1.14308594 -12.09507813 1.14308594 -11.171875 1.2890625 C-10.37265625 1.39992187 -9.5734375 1.51078125 -8.75 1.625 C-7.96109375 1.74101562 -7.1721875 1.85703125 -6.359375 1.9765625 C-3.67847541 2.00319395 -2.27305911 1.36592084 0 0 Z " fill="#D8807F" transform="translate(60,166)"/>
<path d="M0 0 C2.31 0 4.62 0 7 0 C7 0.99 7 1.98 7 3 C4.03 3.66 1.06 4.32 -2 5 C-2.33 4.01 -2.66 3.02 -3 2 C-2.01 2 -1.02 2 0 2 C0 1.34 0 0.68 0 0 Z " fill="#5FA74E" transform="translate(163,165)"/>
<path d="M0 0 C1.32 0 2.64 0 4 0 C4 2.31 4 4.62 4 7 C2.35 7 0.7 7 -1 7 C-0.67 4.69 -0.34 2.38 0 0 Z " fill="#C1473F" transform="translate(126,161)"/>
<path d="M0 0 C-1.06186374 3.42156094 -2.06057448 4.03200161 -5.3125 5.75 C-8.55488708 6.84911426 -10.64158092 7.30531083 -14 7 C-11.51520614 5.34347076 -9.0363745 3.83927526 -6.4375 2.375 C-5.65246094 1.92898437 -4.86742187 1.48296875 -4.05859375 1.0234375 C-2 0 -2 0 0 0 Z " fill="#B9403A" transform="translate(176,59)"/>
<path d="M0 0 C1.45792884 -0.05399736 2.91642712 -0.09279177 4.375 -0.125 C5.18710938 -0.14820313 5.99921875 -0.17140625 6.8359375 -0.1953125 C9 0 9 0 11 2 C10.625 4.125 10.625 4.125 10 6 C9.34 5.01 8.68 4.02 8 3 C6.02252878 2.63702064 6.02252878 2.63702064 3.875 2.8125 C2.59625 2.874375 1.3175 2.93625 0 3 C0 2.01 0 1.02 0 0 Z " fill="#C23832" transform="translate(73,153)"/>
<path d="M0 0 C-3.74525799 3.74525799 -7.98270909 3.68909949 -13 4 C-13 3.34 -13 2.68 -13 2 C-8.46298506 0.54815522 -4.81938524 -0.23509196 0 0 Z " fill="#82BC6D" transform="translate(144,126)"/>
<path d="M0 0 C0.99 0.33 1.98 0.66 3 1 C3.75 4.25 3.75 4.25 4 8 C2.0625 10.4375 2.0625 10.4375 0 12 C-0.66 11.67 -1.32 11.34 -2 11 C-1.505 10.608125 -1.01 10.21625 -0.5 9.8125 C1.22796125 8.06757059 1.22796125 8.06757059 1.25 5.5 C1.07997567 2.87282557 1.07997567 2.87282557 0 0 Z " fill="#E8837A" transform="translate(37,155)"/>
<path d="M0 0 C0.71542969 0.28746094 1.43085938 0.57492188 2.16796875 0.87109375 C2.71066406 1.09925781 3.25335938 1.32742187 3.8125 1.5625 C3.4825 2.2225 3.1525 2.8825 2.8125 3.5625 C2.1525 3.2325 1.4925 2.9025 0.8125 2.5625 C-1.06129605 2.49216231 -2.93751102 2.4781978 -4.8125 2.5 C-6.31683594 2.51353516 -6.31683594 2.51353516 -7.8515625 2.52734375 C-9.00785156 2.54474609 -9.00785156 2.54474609 -10.1875 2.5625 C-6.83531531 -1.10894038 -4.63135973 -1.89809825 0 0 Z " fill="#8CC977" transform="translate(167.1875,151.4375)"/>
<path d="M0 0 C0.33 0.66 0.66 1.32 1 2 C0.26821134 4.07196631 -0.55899003 6.1108552 -1.4375 8.125 C-1.91058594 9.22070312 -2.38367188 10.31640625 -2.87109375 11.4453125 C-3.24363281 12.28835937 -3.61617188 13.13140625 -4 14 C-4.66 14 -5.32 14 -6 14 C-5.41162314 9.29298514 -3.44104424 3.44104424 0 0 Z " fill="#DC7A6C" transform="translate(121,62)"/>
<path d="M0 0 C0.66 0.66 1.32 1.32 2 2 C0.515 4.475 0.515 4.475 -1 7 C-1.33 6.34 -1.66 5.68 -2 5 C-3.65 5.33 -5.3 5.66 -7 6 C-5.625 4.5 -5.625 4.5 -4 3 C-3.34 3 -2.68 3 -2 3 C-2 2.34 -2 1.68 -2 1 C-1.34 0.67 -0.68 0.34 0 0 Z " fill="#6DB556" transform="translate(196,161)"/>
<path d="M0 0 C0.99 0 1.98 0 3 0 C2.25 4.75 2.25 4.75 0 7 C-0.33 6.34 -0.66 5.68 -1 5 C-1.99 5.66 -2.98 6.32 -4 7 C-2.79618552 4.50638429 -1.54571278 2.31856917 0 0 Z " fill="#E29B97" transform="translate(180,39)"/>
<path d="M0 0 C2.81411742 1.14861935 4.26612301 1.85483069 6.0625 4.25 C6.0625 4.91 6.0625 5.57 6.0625 6.25 C5.4025 6.25 4.7425 6.25 4.0625 6.25 C3.4025 5.26 2.7425 4.27 2.0625 3.25 C-1.50519552 2.51393501 -1.50519552 2.51393501 -4.9375 2.25 C-4.9375 1.59 -4.9375 0.93 -4.9375 0.25 C-2.9375 -0.75 -2.9375 -0.75 0 0 Z " fill="#97C18A" transform="translate(226.9375,150.75)"/>
<path d="M0 0 C0.66 0 1.32 0 2 0 C1 3 1 3 -0.9609375 4.203125 C-1.75757813 4.54859375 -2.55421875 4.8940625 -3.375 5.25 C-4.56222656 5.78367187 -4.56222656 5.78367187 -5.7734375 6.328125 C-8 7 -8 7 -11 6 C-7.74914905 3.95660798 -4.57394968 2.38986932 -1 1 C-0.67 0.67 -0.34 0.34 0 0 Z " fill="#8DCB7D" transform="translate(155,119)"/>
<path d="M0 0 C5.75 -0.125 5.75 -0.125 8 1 C8 1.99 8 2.98 8 4 C2.25 4.125 2.25 4.125 0 3 C0 2.01 0 1.02 0 0 Z " fill="#C13D3B" transform="translate(30,165)"/>
<path d="M0 0 C0.66 0 1.32 0 2 0 C1.01 3.3 0.02 6.6 -1 10 C-1.66 10 -2.32 10 -3 10 C-3.2295711 6.63295715 -3.33943529 4.58629732 -1.625 1.625 C-1.08875 1.08875 -0.5525 0.5525 0 0 Z " fill="#B93A28" transform="translate(30,153)"/>
<path d="M0 0 C4.24822374 0.47202486 6.19989709 2.96655518 9 6 C5.82629722 6 4.6205332 5.69066658 2 4 C0.75 1.875 0.75 1.875 0 0 Z " fill="#83BF6B" transform="translate(167,120)"/>
<path d="M0 0 C2.96404505 2.80804268 5.44499019 5.18315774 7 9 C5.1875 8.875 5.1875 8.875 3 8 C0 2.96428571 0 2.96428571 0 0 Z " fill="#A9D19E" transform="translate(176,109)"/>
<path d="M0 0 C0.99 0.33 1.98 0.66 3 1 C3.33 2.65 3.66 4.3 4 6 C1.69 5.34 -0.62 4.68 -3 4 C-3 3.34 -3 2.68 -3 2 C-2.01 2 -1.02 2 0 2 C0 1.34 0 0.68 0 0 Z " fill="#EA8377" transform="translate(118,160)"/>
<path d="M0 0 C7.625 0.875 7.625 0.875 11 2 C9 4 9 4 6.0625 4.25 C3 4 3 4 0 2 C0 1.34 0 0.68 0 0 Z " fill="#E49491" transform="translate(117,167)"/>
<path d="M0 0 C1.32 1.32 2.64 2.64 4 4 C2 4 0 4 -2 4 C-2.66 4.66 -3.32 5.32 -4 6 C-4.99 5.67 -5.98 5.34 -7 5 C-4.63707344 2.47411298 -3.33537489 1.11179163 0 0 Z " fill="#8DCC7A" transform="translate(200,163)"/>
<path d="M0 0 C2.64 0 5.28 0 8 0 C7.67 1.65 7.34 3.3 7 5 C5.68 4.67 4.36 4.34 3 4 C3.66 3.34 4.32 2.68 5 2 C3.35 1.67 1.7 1.34 0 1 C0 0.67 0 0.34 0 0 Z " fill="#8ED276" transform="translate(162,161)"/>
<path d="M0 0 C0.66 0.33 1.32 0.66 2 1 C1.79375 1.78375 1.5875 2.5675 1.375 3.375 C1.25125 4.24125 1.1275 5.1075 1 6 C1.66 6.66 2.32 7.32 3 8 C1.35 8 -0.3 8 -2 8 C-2.125 5.125 -2.125 5.125 -2 2 C-1.34 1.34 -0.68 0.68 0 0 Z " fill="#C1352B" transform="translate(72,159)"/>
<path d="M0 0 C0.66 0.66 1.32 1.32 2 2 C1.625 5.125 1.625 5.125 1 8 C1.66 8 2.32 8 3 8 C3 8.66 3 9.32 3 10 C1.68 9.34 0.36 8.68 -1 8 C-1.04241723 5.66705225 -1.04092937 3.33297433 -1 1 C-0.67 0.67 -0.34 0.34 0 0 Z " fill="#8BC276" transform="translate(185,156)"/>
<path d="M0 0 C0.33 0 0.66 0 1 0 C1 4.62 1 9.24 1 14 C0.67 14 0.34 14 0 14 C0 11.36 0 8.72 0 6 C-0.66 6 -1.32 6 -2 6 C-1.34 4.02 -0.68 2.04 0 0 Z " fill="#F8B9AE" transform="translate(63,152)"/>
<path d="M0 0 C0 0.66 0 1.32 0 2 C-3.3 2.66 -6.6 3.32 -10 4 C-4.7704918 -1.59016393 -4.7704918 -1.59016393 0 0 Z " fill="#92CA78" transform="translate(150,151)"/>
<path d="M0 0 C-3.66291938 2.47785723 -6.6109185 3.48964169 -11 4 C-10.67 3.01 -10.34 2.02 -10 1 C-8.22265625 0.234375 -8.22265625 0.234375 -6.0625 -0.25 C-5.35222656 -0.42015625 -4.64195312 -0.5903125 -3.91015625 -0.765625 C-2 -1 -2 -1 0 0 Z " fill="#8DC876" transform="translate(144,130)"/>
<path d="M0 0 C-0.33 0.99 -0.66 1.98 -1 3 C-2.65 3.33 -4.3 3.66 -6 4 C-6 3.01 -6 2.02 -6 1 C-6.66 0.67 -7.32 0.34 -8 0 C-4.71303767 -0.79953138 -3.28976808 -1.09658936 0 0 Z " fill="#AEDDA2" transform="translate(150,113)"/>
<path d="M0 0 C1.6254308 0.14095064 3.25034051 0.28792087 4.875 0.4375 C5.77992188 0.51871094 6.68484375 0.59992188 7.6171875 0.68359375 C10 1 10 1 12 2 C8.75173326 4.16551116 7.76905843 4.55156953 4 4 C1.6875 2 1.6875 2 0 0 Z " fill="#9DD08B" transform="translate(218,167)"/>
<path d="M0 0 C0.99 1.32 1.98 2.64 3 4 C-0.06890187 5.53445094 -2.70094266 4.54984289 -6 4 C-6 3.34 -6 2.68 -6 2 C-4.02 2 -2.04 2 0 2 C0 1.34 0 0.68 0 0 Z " fill="#5AAC3E" transform="translate(150,151)"/>
<path d="M0 0 C2.51033417 1.1336993 2.96441202 2.36118938 3.9375 4.875 C2.9475 4.875 1.9575 4.875 0.9375 4.875 C0.9375 4.215 0.9375 3.555 0.9375 2.875 C-2.0325 2.38 -2.0325 2.38 -5.0625 1.875 C-2.0625 -0.125 -2.0625 -0.125 0 0 Z " fill="#C53B38" transform="translate(111.0625,153.125)"/>
<path d="M0 0 C6.75 0.875 6.75 0.875 9 2 C9 2.66 9 3.32 9 4 C4.545 3.01 4.545 3.01 0 2 C0 1.34 0 0.68 0 0 Z " fill="#55AB41" transform="translate(101,119)"/>
<path d="M0 0 C2.0625 2.3125 2.0625 2.3125 4 5 C3.67 5.99 3.34 6.98 3 8 C0.9375 6.25 0.9375 6.25 -1 4 C-0.75 1.75 -0.75 1.75 0 0 Z " fill="#78BB5C" transform="translate(157,163)"/>
<path d="M0 0 C0.99 0.495 0.99 0.495 2 1 C2.66 0.67 3.32 0.34 4 0 C4.66 0.33 5.32 0.66 6 1 C5.67 1.99 5.34 2.98 5 4 C4.01 4 3.02 4 2 4 C1.67 4.66 1.34 5.32 1 6 C0.67 4.02 0.34 2.04 0 0 Z " fill="#A0E08B" transform="translate(217,160)"/>
<path d="M0 0 C2.475 0.99 2.475 0.99 5 2 C4.67 3.98 4.34 5.96 4 8 C3.01 7.67 2.02 7.34 1 7 C1.20625 6.401875 1.4125 5.80375 1.625 5.1875 C2.30671915 2.71549154 2.30671915 2.71549154 0 0 Z " fill="#7AB867" transform="translate(228,160)"/>
<path d="M0 0 C0.66 0.33 1.32 0.66 2 1 C0.50260417 2.20442708 -0.99479167 3.40885417 -2.4921875 4.61328125 C-4.25292107 6.12270545 -4.25292107 6.12270545 -6 9 C-6 7.35 -6 5.7 -6 4 C-5.01 4 -4.02 4 -3 4 C-2.67 3.01 -2.34 2.02 -2 1 C-1.34 0.67 -0.68 0.34 0 0 Z " fill="#52A23A" transform="translate(205,153)"/>
<path d="M0 0 C2.31 0 4.62 0 7 0 C6.67 0.99 6.34 1.98 6 3 C4.02 3 2.04 3 0 3 C0 2.01 0 1.02 0 0 Z " fill="#C82B22" transform="translate(94,81)"/>
<path d="M0 0 C1.5 1.3125 1.5 1.3125 3 3 C3 3.99 3 4.98 3 6 C1.35 5.67 -0.3 5.34 -2 5 C-1.34 3.35 -0.68 1.7 0 0 Z " fill="#CB413A" transform="translate(124,58)"/>
<path d="M0 0 C2.31 0 4.62 0 7 0 C6.67 0.99 6.34 1.98 6 3 C4.35 3 2.7 3 1 3 C0.67 2.01 0.34 1.02 0 0 Z " fill="#89BB80" transform="translate(144,168)"/>
<path d="M0 0 C0.99 0.33 1.98 0.66 3 1 C2.34 1 1.68 1 1 1 C1.33 2.32 1.66 3.64 2 5 C1.01 5.33 0.02 5.66 -1 6 C-1 5.34 -1 4.68 -1 4 C-1.66 4 -2.32 4 -3 4 C-3 3.34 -3 2.68 -3 2 C-2.01 2 -1.02 2 0 2 C0 1.34 0 0.68 0 0 Z " fill="#D86861" transform="translate(125,160)"/>
<path d="M0 0 C0 0.66 0 1.32 0 2 C-2.64 2 -5.28 2 -8 2 C-8 1.34 -8 0.68 -8 0 C-4.71023192 -1.09658936 -3.28696233 -0.79953138 0 0 Z " fill="#A7ED8F" transform="translate(169,157)"/>
<path d="M0 0 C-1.375 2 -1.375 2 -3 4 C-3.66 4 -4.32 4 -5 4 C-5.33 2.68 -5.66 1.36 -6 0 C-3.50907189 -1.24546405 -2.58919267 -0.7767578 0 0 Z " fill="#BD3217" transform="translate(142,53)"/>
<path d="M0 0 C1.32 0.33 2.64 0.66 4 1 C3.34 2.98 2.68 4.96 2 7 C1.34 7 0.68 7 0 7 C0 4.69 0 2.38 0 0 Z " fill="#E79D9B" transform="translate(180,50)"/>
<path d="M0 0 C1.65 0 3.3 0 5 0 C5.66 1.32 6.32 2.64 7 4 C4.36 3.34 1.72 2.68 -1 2 C-0.67 1.34 -0.34 0.68 0 0 Z " fill="#5FA946" transform="translate(224,153)"/>
<path d="M0 0 C2.31 0 4.62 0 7 0 C7 0.66 7 1.32 7 2 C2.25 3.125 2.25 3.125 0 2 C0 1.34 0 0.68 0 0 Z " fill="#AACF9E" transform="translate(135,116)"/>
</svg>
